<svg xmlns="http://www.w3.org/2000/svg" viewBox="0 0 22 22"><defs><style>.cls-1{opacity:0.7;}.cls-2{fill:#f0f1f2;}</style></defs><title>ins-icon</title><g id="Layer_2" data-name="Layer 2"><g id="index_1280px" data-name="index@1280px"><g id="footer"><g id="social"><g id="instagram" class="cls-1"><path class="cls-2" d="M18.94,0H3.06A3.06,3.06,0,0,0,0,3.06V18.94A3.06,3.06,0,0,0,3.06,22H18.94A3.06,3.06,0,0,0,22,18.94V3.06A3.06,3.06,0,0,0,18.94,0ZM11,6.72A4.28,4.28,0,1,1,6.72,11,4.28,4.28,0,0,1,11,6.72Zm8.56,12.22a.61.61,0,0,1-.61.61H3.06a.61.61,0,0,1-.61-.61V9.17H4.54a6.72,6.72,0,1,0,12.93,0h2.09Zm0-12.83a.61.61,0,0,1-.61.61H15.89a.61.61,0,0,1-.61-.61V3.06a.61.61,0,0,1,.61-.61h3.06a.61.61,0,0,1,.61.61Z"/></g></g></g></g></g></svg>