<svg xmlns="http://www.w3.org/2000/svg" viewBox="0 0 103.2 50"><defs><style>.cls-1{fill:#8c9094;}.cls-2{fill:#0055a5;}</style></defs><title>mail.icon</title><g id="Layer_2" data-name="Layer 2"><g id="index_1280px" data-name="index@1280px"><g id="partners"><g id="logos"><g id="rupost"><path class="cls-1" d="M101.71,0H53.21V50h50V0ZM100.2,47h-44V3h44Z"/><path class="cls-1" d="M42,14.28a1.16,1.16,0,0,0-1-.47h-.69v.13l0,0v.54l0,.07v.75l0,.06v.3h2.15A3.39,3.39,0,0,0,42,14.28Z"/><path class="cls-1" d="M13.53,28.82c-.42,0-.74.34-1,1a8.62,8.62,0,0,0-.36,2.73,9,9,0,0,0,.36,2.75c.23.7.54,1,1,1h.13l0,0h0l0,0,0,0h0l0,0,0,0,0,0,0,0,0,0,0,0,0,0,0,0,0,0,0,0,0,0,0,0,0,0,0-.06,0,0,0-.06,0,0,0-.06,0-.06,0-.06,0-.06,0-.06,0-.06,0-.07a9.35,9.35,0,0,0,.34-2.78,9,9,0,0,0-.3-2.69C14.36,29.16,14,28.82,13.53,28.82Z"/><path class="cls-1" d="M16.79,13.57c-.47,0-.82.33-1.07,1a7.79,7.79,0,0,0-.39,2.71A8.17,8.17,0,0,0,15.73,20l0,.06,0,.06,0,.06,0,.06,0,.07,0,0,0,.06,0,.06,0,0,0,0,0,.06,0,0,0,0,0,0,0,0,0,0,0,0,0,0,0,0,0,0,0,0,0,0,0,0,0,0,0,0h0l0,0,0,0h.17c.48,0,.83-.32,1.08-1a8.08,8.08,0,0,0,.39-2.75,8.17,8.17,0,0,0-.34-2.67C17.69,13.91,17.32,13.57,16.79,13.57Z"/><path class="cls-1" d="M0,0V50H50V0ZM4.59,12.07h6.25v10.5H8.92V13.81H6.53v8.76H4.59ZM8.8,34.36a1.62,1.62,0,0,1-1.4.9,1.69,1.69,0,0,1-1.1-.47v3H4.58V27.4H6.48l.11,0h.09l.11,0h.09l.11,0,.09,0,.09,0,.09,0,.09,0,.09,0,.09,0,.09,0,.07,0,.07.06.09,0,.07.06.07.06.07.06.07.07.07.06.07.07.06.07.07.07.06.07.06.07.07.09.06.09.06.07,0,.09.06.09.06.11a5.63,5.63,0,0,1,.49,2.39A5.66,5.66,0,0,1,8.8,34.36Zm7,2.09A2.55,2.55,0,0,1,13.53,38a2.37,2.37,0,0,1-2.19-1.51,9.09,9.09,0,0,1-.73-4,8.58,8.58,0,0,1,.77-3.9,2.4,2.4,0,0,1,2.15-1.51h.19l.09,0,.09,0H14l.07,0,.09,0,.07,0,.09,0,.07,0,.07,0,.07,0,.07,0,.07,0,.07,0,.07,0,.07.06.06.06.07.06.06.06.07.06.06.06.07.07.06.07.06.07.06.07.07.07,0,.07.07.07,0,.09.06.09.06.09a8.29,8.29,0,0,1,.78,3.89A8.6,8.6,0,0,1,15.82,36.46ZM14.31,21.27a8.31,8.31,0,0,1-.82-4,7.8,7.8,0,0,1,.86-3.92,2.71,2.71,0,0,1,2.43-1.53h.11l.09,0h.21l.09,0,.09,0,.09,0,.09,0,.09,0,.07,0,.09,0,.09,0,.07,0,.09,0,.07,0,.07.06.07,0,.09.06.07.06.07.06.07.06.07.07.06.06.07.07.07.07.06.07.07.07.06.09.07.07.06.09.06.09.06.09a7.69,7.69,0,0,1,.9,3.92,7.83,7.83,0,0,1-.88,3.94,2.85,2.85,0,0,1-2.58,1.59A2.68,2.68,0,0,1,14.31,21.27Zm8.83,16.88h-.08a4.84,4.84,0,0,1-3.82-1.58,5.71,5.71,0,0,1-1.32-3.91,5.86,5.86,0,0,1,1.22-3.93A4.81,4.81,0,0,1,23,27.14h.09V29H23A3,3,0,0,0,20.53,30a4,4,0,0,0-.79,2.62v.58l0,.19,0,.18,0,.18,0,.16,0,.17.06.16.06.16.07.15.07.15.08.14.08.14.1.13.05.07,0,.06a3.06,3.06,0,0,0,2.5,1.08h.08Zm-.79-23.08v-3h1.93v2.8a.71.71,0,0,0,.22.56,1.37,1.37,0,0,0,1,.29h1.05V12.07h1.94v10.5H26.52V17.5H25.1a2.9,2.9,0,0,1-1.94-.69A2.22,2.22,0,0,1,22.35,15.07Zm7.26,23.08h-.08a4.86,4.86,0,0,1-3.82-1.58,5.75,5.75,0,0,1-1.32-3.91,5.9,5.9,0,0,1,1.22-3.93,4.82,4.82,0,0,1,3.9-1.58h.08V29H29.5A3.05,3.05,0,0,0,27,30a4,4,0,0,0-.79,2.62v.58l0,.19,0,.18,0,.18,0,.16,0,.17.05.16.07.16.07.15.07.15.07.14.09.14.09.13.1.13a3.05,3.05,0,0,0,2.49,1.08h.08Zm1.14-26.08h5.17v1.74H34.29v8.76H32.36V13.81H30.75Zm4.89,25.76s-.23-6.51-.25-6.89l-2.45,2.6v4.29H31.26V27.39H33V31l0,0,0,0,0,0,0,0,0,0,0,0,0,0,0-.05.05-.05.05-.06.06-.06.06-.07.07-.07.13-.14.14-.15L34,30l.16-.17.16-.17.17-.17.17-.18.35-.37.17-.19.17-.18.17-.17.16-.17.16-.16.15-.16.14-.15.13-.14.07-.07.06-.06.05-.06.05-.05.05-.05,0-.05,0,0,0,0,0,0,0,0,0,0,0,0v0h0v0l.13-.14.41,10.95Zm2.8-25.76H41.3a3.12,3.12,0,0,1,2,.56l.07.06,0,.06.06,0,.06.06.06.06,0,0,.06.07,0,0,0,.07.06.06,0,.06,0,.07,0,.06,0,.07,0,.06,0,.07,0,.07,0,.07,0,.07,0,.07,0,.07,0,.07,0,.07,0,.09,0,.07v.09l0,.07v.09l0,.09v.28l.9,7.68H43.17l-.56-5.14H40.2c0,.23-.19,5.14-.19,5.14H38.09ZM43.7,37.84s-.23-6.51-.25-6.89L41,33.55v4.29H39.32V27.39H41v3.68l3.86-4,.14-.14.41,10.95Z"/><path class="cls-1" d="M6.37,28.87H6.2V32a2.42,2.42,0,0,0,.22,1.14c.14.27.31.41.52.41s.41-.15.56-.45a2.87,2.87,0,0,0,.22-1.29,5.26,5.26,0,0,0-.36-2.24A1.12,1.12,0,0,0,6.37,28.87Z"/><path id="path52" class="cls-1" d="M68.36,16.16l.07.16.08.15.08.16.1.16.05.07.06.08.05.08.06.08.07.08.07.08.07.08.07.08.08.09.08.08.08.09.09.09.1.09.1.09.1.09.11.1.11.09.12.1.12.1.13.1.14.1.13.1.15.1.15.1a1.21,1.21,0,0,1,.47,1.52c-.31.75-.9,1.79-.55,2.2a2.73,2.73,0,0,0,2.61.22,3.48,3.48,0,0,0,.59,1.05s-.18.35-.76.17a1.39,1.39,0,0,1-.08,1.1,1.45,1.45,0,0,1-1-.75,1.54,1.54,0,0,1-.81.66S71,24.9,71.12,24a1.7,1.7,0,0,1-1.34.93A1.4,1.4,0,0,1,70,23.21a1.77,1.77,0,0,1-1.54.25s-.16-.51.74-1.21a1.71,1.71,0,0,1-1.4-.9,1.64,1.64,0,0,1,1.48-.41A1.69,1.69,0,0,1,68,19.56a1.73,1.73,0,0,1,1.82.27,2.62,2.62,0,0,0-.66-.75A3.2,3.2,0,0,1,68.36,16.16Z"/><path id="path54" class="cls-1" d="M72.44,27.93l0,0,0,0,0,0,0,0,0,0,0,0,0,0,0,0,0,0,0,0v0l0,0v0l0,0v-.08c.18,1.42.24,2.38,1,3.3a2.71,2.71,0,0,0,.16-2.11,1.55,1.55,0,0,1-.41-.19,3,3,0,0,1,.07,1.22S72.64,29.36,72.44,27.93Z"/><path id="path56" class="cls-1" d="M71.11,27.78H71v0l0,0,0,0,0,0,0,0,0,0,0,0,0,0,0,0,0,0v0h0c-.07.82-.28,3,.45,3.67,0,0,.49-.37.67-3.53a3.43,3.43,0,0,1-.38.47,3.52,3.52,0,0,1-.24,1.71S70.89,29.3,71.11,27.78Z"/><path id="path58" class="cls-1" d="M69.38,29.44l.05-.07.05-.08.05-.09.05-.1,0-.1,0-.1,0-.11,0-.11,0-.12,0-.12,0-.12,0-.13.06-.25,0-.12,0-.12,0-.12v-.11l0-.11v-.77h0v0h0l.25-.19.1-.09c0,.08,0,.16,0,.25a9,9,0,0,1-.6,3.35,3,3,0,0,1-1.14,1c-.69-1.24.14-2.9.84-4.06l.27-.11A6.21,6.21,0,0,0,69.38,29.44Z"/><path id="path60" class="cls-1" d="M67.66,25.63v.17h0l0,.09a15.45,15.45,0,0,0-1.88,2.31,3.1,3.1,0,0,1-2.23,1.25A4.42,4.42,0,0,1,64.75,27,14.89,14.89,0,0,1,67.1,25a1.27,1.27,0,0,0,.7.1h.07a1,1,0,0,0-.18.35A6.33,6.33,0,0,0,65,27.7,7.4,7.4,0,0,0,67.66,25.63Z"/><path id="path62" class="cls-1" d="M66.57,24.43l.06-.11.06-.09c-.57.22-2.57,1-3.22,1.31a4.43,4.43,0,0,0-2.09,2.65,3.72,3.72,0,0,0,2.47-.81c1.11-.92,2.41-2.21,3-2.62a.72.72,0,0,1-.13-.14,11.34,11.34,0,0,1-3.11,1.91,3.76,3.76,0,0,1,1-1.07A10.06,10.06,0,0,1,66.57,24.43Z"/><path id="path64" class="cls-1" d="M65.43,23.51h0v0h0v0h0c-.66.14-2.32.34-3.06.56a4.64,4.64,0,0,0-2.86,2.28s1.17.36,3.36-.67a20.32,20.32,0,0,1,3.3-1.36,1.52,1.52,0,0,1-.7-.21,8.77,8.77,0,0,1-3.21.88,7.43,7.43,0,0,1,1.17-.66A15.2,15.2,0,0,1,65.43,23.51Z"/><path id="path66" class="cls-1" d="M65.48,22.42l0,0h.07l0,0h.5a1.87,1.87,0,0,0-.43.39,21.91,21.91,0,0,1-4.27.62,9,9,0,0,1-3.33-.24,9.72,9.72,0,0,1,2.78-1.09c.82-.16,3-.13,3.9-.27a2.76,2.76,0,0,0,.32.22,11.4,11.4,0,0,0-3.36.58A10,10,0,0,0,65.48,22.42Z"/><path id="path68" class="cls-1" d="M65.32,21.17h.4a19.49,19.49,0,0,0-4.88-1,12.18,12.18,0,0,0-3.5.15,10.27,10.27,0,0,0,3.26,1.45,16.74,16.74,0,0,0,4.17.14,2.38,2.38,0,0,1,.27-.33,16.87,16.87,0,0,1-3.93-.54A9.54,9.54,0,0,1,65.32,21.17Z"/><path id="path70" class="cls-1" d="M65.32,19.88h0v.26l0,0,0,0,0,0,0,0,0,0,0,0,0,0,0,0,0,0,0,0,0,0,0,0,.05,0,.05,0,.06,0,.05,0,.07,0,.07,0c-1.55-.67-4.6-1.06-6.22-1.75-2.21-.91-2.62-2.06-2.62-2.06a13.83,13.83,0,0,1,4.65.78c1.4.43,3.53,1.22,4.27,1.55a1.53,1.53,0,0,0-.84.26,24.87,24.87,0,0,0-2.47-.84,8.92,8.92,0,0,0-1.76-.29,7.68,7.68,0,0,0,1.73.78A16.09,16.09,0,0,0,65.32,19.88Z"/><path id="path72" class="cls-1" d="M65.2,18.19h.08v0h0l0,0,0,0,0,0,0,0v0h.11a11,11,0,0,1-6-3.41A4.48,4.48,0,0,1,59,12.41a10.23,10.23,0,0,1,3,2.13c.46.45,1.83,1.79,2.78,2.53l.29.85c-.81-.65-1.77-1.37-2.38-1.83A7.36,7.36,0,0,0,60.82,15,8.44,8.44,0,0,0,62,16.24a12.23,12.23,0,0,0,1.68,1.14C64.08,17.63,64.31,17.77,65.2,18.19Z"/><path id="path74" class="cls-1" d="M72.09,25h.19A5.07,5.07,0,0,1,73,25.93c.14.4.29.94.37,1.25a5.54,5.54,0,0,0,.43,1.19,1.23,1.23,0,0,1-1-.44,2.78,2.78,0,0,1-.65-1.53A5.88,5.88,0,0,1,72.09,25Z"/><path id="path76" class="cls-1" d="M71.14,25.11h.22l.09,0,.08,0,.2-.08a2.17,2.17,0,0,1,.15.56,3,3,0,0,1,0,1,2.25,2.25,0,0,1-.52.85,2.82,2.82,0,0,1-.5-.78,2,2,0,0,1,0-1.24A2,2,0,0,1,71.14,25.11Z"/><path id="path78" class="cls-1" d="M69.81,25.15h.28l.07,0h.07l.06,0,.06,0,.05,0,.05,0,.06,0,0,0,.05,0,0,0,0,0,0,0a1,1,0,0,1,.07.59,1.49,1.49,0,0,1-.52.78,2,2,0,0,1-1.53.52S68.63,26.25,69.81,25.15Z"/><path id="path80" class="cls-1" d="M69.36,24.41v.52h0v0h.07a1.78,1.78,0,0,1-1.69.88.84.84,0,0,1,.41-1.05A3.38,3.38,0,0,1,69.36,24.41Z"/><path id="path82" class="cls-1" d="M69.45,23.67H68.37l-.12,0,0-.12c-.53.44-1.17.52-1.39.91a.93.93,0,0,0,1,.4A2.31,2.31,0,0,0,69.38,24,1.21,1.21,0,0,1,69.45,23.67Z"/><path id="path84" class="cls-1" d="M68.25,23.06v0l0,0v-.07l0,0v0l0,0v0l0,0,0,0v0h0V22.6h0v0l0,0v0l0,0h0a3.46,3.46,0,0,0-1.41,0,1.76,1.76,0,0,0-1.63,1.24,1.39,1.39,0,0,0,1.17.2A2.36,2.36,0,0,0,68.25,23.06Z"/><path id="path86" class="cls-1" d="M68,22l0,0,0,0,0,0,0,0,0,0,0,0,0,0,0,0,0,0,0,0,0,0,0,0,0,0,0,0,0,0,0,0-.05-.12a2.33,2.33,0,0,0-1.7-.13,1.52,1.52,0,0,0-.86.67,2.53,2.53,0,0,0,1.35.55A3,3,0,0,0,68,22Z"/><path id="path88" class="cls-1" d="M68.14,20.85h.32a2,2,0,0,1-.61-1,2.74,2.74,0,0,1-1.13,0,1.42,1.42,0,0,0-1.2.16,1.36,1.36,0,0,0,1.06,1A2.32,2.32,0,0,0,68.14,20.85Z"/><path id="path90" class="cls-1" d="M67.8,19.46l.12-.08a1.37,1.37,0,0,1,.58-.16A14.2,14.2,0,0,0,67,18.11a7.25,7.25,0,0,0-1.93-.78A5.5,5.5,0,0,0,66,18.93,1.81,1.81,0,0,0,67.8,19.46Z"/><path id="path92" class="cls-1" d="M68.74,18.93l0-.05,0-.06,0-.06,0-.06,0-.07,0-.07,0-.07,0-.07,0-.07,0-.07,0-.07,0-.08,0-.08,0-.08,0-.09,0-.08a13.48,13.48,0,0,0-.49-1.58,2.86,2.86,0,0,0-1.66-1.37,3.15,3.15,0,0,0,.24,2A5.58,5.58,0,0,0,68.74,18.93Z"/><path id="path94" class="cls-1" d="M74.3,24.14l0,0,0,0,0,0h0l0,0h0l0,0h0l0,0h.2a1.51,1.51,0,0,1-.07,1.34,18.32,18.32,0,0,0-.87,1.91s-.21,0-.44-1.19a2.28,2.28,0,0,0-.56-1.24,1.37,1.37,0,0,0,.43.14l.15,0,.07-.15a1.57,1.57,0,0,0,.17-.73,1.64,1.64,0,0,0,0-.2.75.75,0,0,0,.63-.26v0Z"/><path id="path96" class="cls-1" d="M65.79,15.29h0v.34l0,.28-2-2.51a5.26,5.26,0,0,0-1.29-1.2A6,6,0,0,0,64,14.55a16.3,16.3,0,0,0,1.79,1.58l.06.21a2.65,2.65,0,0,0,.23.6,5.11,5.11,0,0,0,.6.79c-.19-.1-.41-.2-.63-.29l-.21-.09A11.76,11.76,0,0,1,61.57,13a5.72,5.72,0,0,1-.24-3.84A18,18,0,0,1,63.84,12a25.52,25.52,0,0,1,1.94,3.27v0Z"/><path id="path98" class="cls-1" d="M91.09,21.17h-.4a19.63,19.63,0,0,1,4.89-1,12.14,12.14,0,0,1,3.49.15,10.38,10.38,0,0,1-3.26,1.45,16.79,16.79,0,0,1-4.18.14,1.84,1.84,0,0,0-.26-.33,16.93,16.93,0,0,0,3.93-.54A9.57,9.57,0,0,0,91.09,21.17Z"/><path id="path100" class="cls-1" d="M91.1,19.88h0v.22l0,0v0l0,0,0,0,0,0,0,0,0,0,0,0,0,0,0,0,0,0,0,0,0,0,0,0-.06,0-.05,0-.06,0-.06,0-.07,0c1.55-.67,4.59-1.06,6.23-1.75,2.2-.91,2.61-2.06,2.61-2.06a13.87,13.87,0,0,0-4.65.78c-1.4.43-3.52,1.22-4.27,1.55a1.54,1.54,0,0,1,.84.26,25.47,25.47,0,0,1,2.47-.84,9,9,0,0,1,1.76-.29,7.51,7.51,0,0,1-1.73.78A16.5,16.5,0,0,1,91.1,19.88Z"/><path id="path102" class="cls-1" d="M91.22,18.19h-.08l0,0,0,0,0,0,0,0,0,0v0H90.9a11,11,0,0,0,6-3.41,4.45,4.45,0,0,0,.6-2.85,10.36,10.36,0,0,0-3,2.13c-.45.45-1.82,1.79-2.77,2.53l-.29.85c.81-.65,1.77-1.37,2.37-1.83A7.28,7.28,0,0,1,95.6,15a9,9,0,0,1-1.14,1.23,12.26,12.26,0,0,1-1.69,1.14C92.33,17.63,92.1,17.77,91.22,18.19Z"/><path id="path104" class="cls-1" d="M90.63,15.29v.35l0,.28c.59-.75,1.3-1.67,2-2.51a5.53,5.53,0,0,1,1.29-1.2,5.93,5.93,0,0,1-1.49,2.34,16.3,16.3,0,0,1-1.79,1.58l-.06.21a3.11,3.11,0,0,1-.24.6,5,5,0,0,1-.59.79c.19-.1.4-.2.63-.29l.2-.09A11.76,11.76,0,0,0,94.84,13a5.59,5.59,0,0,0,.24-3.84A17.92,17.92,0,0,0,92.57,12a25.66,25.66,0,0,0-1.94,3.27v0Z"/><path id="path106" class="cls-1" d="M68.1,26.19l-.07.07-.07.07-.08.08-.08.09-.09.09-.09.1-.09.1-.09.1-.1.11-.1.11-.09.12-.1.12-.09.13-.1.13-.09.13-.09.13L66.6,28l-.08.14-.08.14-.07.15-.07.15-.06.16-.06.15-.06.16,0,.16,0,.16,0,.16,0,.16v.67A4,4,0,0,0,68,28.89a12,12,0,0,1,1.22-2,1.68,1.68,0,0,1-.48,0l-.13,0A6.49,6.49,0,0,1,66.83,29s-.16-.9,1.77-2.7a1.83,1.83,0,0,1,.12-.25,1.55,1.55,0,0,1-.61.09"/><path id="path108" class="cls-1" d="M88.06,16.16l-.07.16-.08.15-.08.16-.1.16-.05.07-.05.08-.06.08-.06.08-.06.08-.07.08-.07.08-.07.08-.07.09-.08.08L87,17.7l-.09.09-.1.09-.1.09-.1.09-.11.1-.11.09-.12.1-.12.1-.13.1-.13.1-.14.1-.15.1-.15.1A1.2,1.2,0,0,0,85,20.47c.31.75.9,1.79.55,2.2a2.74,2.74,0,0,1-2.62.22,3.55,3.55,0,0,1-.58,1.05s.18.35.76.17a1.39,1.39,0,0,0,.08,1.1,1.42,1.42,0,0,0,1-.75,1.54,1.54,0,0,0,.81.66s.46-.23.35-1.13a1.7,1.7,0,0,0,1.35.93,1.4,1.4,0,0,0-.18-1.73,1.76,1.76,0,0,0,1.54.25s.16-.51-.74-1.21a1.71,1.71,0,0,0,1.4-.9,1.66,1.66,0,0,0-1.49-.41,1.69,1.69,0,0,0,1.2-1.38,1.72,1.72,0,0,0-1.82.27,2.62,2.62,0,0,1,.67-.75A3.25,3.25,0,0,0,88.06,16.16Z"/><path id="path110" class="cls-1" d="M84,27.93l0,0,0,0,0,0,0,0,0,0,0,0,0,0,0,0,0,0v0l0,0v0l0,0v-.11c-.17,1.42-.23,2.38-1,3.3a2.75,2.75,0,0,1-.16-2.11,1.36,1.36,0,0,0,.41-.19,3.13,3.13,0,0,0-.07,1.22S83.77,29.36,84,27.93Z"/><path id="path112" class="cls-1" d="M85.3,27.78h.1v0l0,0,0,0,0,0,0,0,0,0,0,0,0,0,0,0,0,0v0h0c.07.82.28,3-.44,3.67,0,0-.5-.37-.67-3.53a4.17,4.17,0,0,0,.37.47,3.52,3.52,0,0,0,.24,1.71S85.53,29.3,85.3,27.78Z"/><path id="path114" class="cls-1" d="M87,29.44,87,29.37l-.05-.08-.05-.09,0-.1-.05-.1,0-.1,0-.11,0-.11,0-.12,0-.12,0-.12,0-.13-.05-.25,0-.12,0-.12,0-.12v-.11l0-.11v-.77h0v0h0a2,2,0,0,1-.25-.19.6.6,0,0,1-.1-.09,1.37,1.37,0,0,1,0,.25,9.1,9.1,0,0,0,.61,3.35,3,3,0,0,0,1.14,1c.69-1.24-.14-2.9-.85-4.06l-.26-.11A6.45,6.45,0,0,1,87,29.44Z"/><path id="path116" class="cls-1" d="M88.76,25.63h0v.12h0l0,.09a15.45,15.45,0,0,1,1.88,2.31A3.09,3.09,0,0,0,92.8,29.6,4.43,4.43,0,0,0,91.66,27,15.18,15.18,0,0,0,89.31,25a1.27,1.27,0,0,1-.7.1h-.07a1,1,0,0,1,.18.35,6.38,6.38,0,0,1,2.64,2.3A7.39,7.39,0,0,1,88.76,25.63Z"/><path id="path118" class="cls-1" d="M89.85,24.43l-.06-.11-.06-.09c.56.22,2.56,1,3.21,1.31A4.41,4.41,0,0,1,95,28.19a3.7,3.7,0,0,1-2.47-.81c-1.11-.92-2.41-2.21-3-2.62a.59.59,0,0,0,.13-.14,11.34,11.34,0,0,0,3.11,1.91,3.71,3.71,0,0,0-1-1.07A9.83,9.83,0,0,0,89.85,24.43Z"/><path id="path120" class="cls-1" d="M91,23.51h0v0h0v0h0v0c.66.14,2.32.34,3.06.56a4.66,4.66,0,0,1,2.86,2.28s-1.17.36-3.36-.67a20.1,20.1,0,0,0-3.29-1.36,1.52,1.52,0,0,0,.69-.21,8.77,8.77,0,0,0,3.21.88,7.32,7.32,0,0,0-1.18-.66A14.55,14.55,0,0,0,91,23.51Z"/><path id="path122" class="cls-1" d="M90.94,22.42l0,0h-.08l0,0h-.51a1.9,1.9,0,0,1,.43.39,21.71,21.71,0,0,0,4.26.62,9,9,0,0,0,3.33-.24,9.73,9.73,0,0,0-2.78-1.09c-.81-.16-3-.13-3.9-.27a1.87,1.87,0,0,1-.31.22,11.36,11.36,0,0,1,3.35.58A10,10,0,0,1,90.94,22.42Z"/><path id="path124" class="cls-1" d="M84.32,25l0,0h-.16a4.76,4.76,0,0,0-.68,1.09c-.13.4-.29.94-.36,1.25a6.44,6.44,0,0,1-.43,1.19,1.21,1.21,0,0,0,1-.44,2.67,2.67,0,0,0,.65-1.53A5.47,5.47,0,0,0,84.32,25Z"/><path id="path126" class="cls-1" d="M85.27,25.11H85l-.07,0-.09,0-.2-.08a2.14,2.14,0,0,0-.14.56,2.77,2.77,0,0,0,0,1,2.26,2.26,0,0,0,.52.85,2.66,2.66,0,0,0,.5-.78,2,2,0,0,0,0-1.24A1.68,1.68,0,0,0,85.27,25.11Z"/><path id="path128" class="cls-1" d="M86.61,25.15h-.28l-.07,0H86.2l-.06,0-.06,0L86,25,86,25l-.05,0-.05,0,0,0-.05,0,0,0,0,0a.94.94,0,0,0-.07.59,1.45,1.45,0,0,0,.52.78,2,2,0,0,0,1.52.52S87.79,26.25,86.61,25.15Z"/><path id="path130" class="cls-1" d="M87.06,24.41v.52h0v0H86.8a1.77,1.77,0,0,0,1.69.88.84.84,0,0,0-.42-1.05A3.36,3.36,0,0,0,87.06,24.41Z"/><path id="path132" class="cls-1" d="M87,23.67H88l.12,0,0-.12c.53.44,1.17.52,1.39.91a.93.93,0,0,1-1,.4A2.31,2.31,0,0,1,87,24,2.18,2.18,0,0,0,87,23.67Z"/><path id="path134" class="cls-1" d="M88.17,23.06h0l0,0v-.07l0,0v0l0,0,0,0v0l0,0v0h0V22.6h0v0l0,0v0l0,0h0a3.45,3.45,0,0,1,1.41,0,1.76,1.76,0,0,1,1.63,1.24,1.4,1.4,0,0,1-1.17.2A2.34,2.34,0,0,1,88.17,23.06Z"/><path id="path136" class="cls-1" d="M88.44,22l0,0,0,0,0,0,0,0,0,0,0,0,0,0,0,0,0,0,0,0,0,0,0,0,0,0,0,0,0,0,0,0,.05-.12a2.33,2.33,0,0,1,1.7-.13,1.51,1.51,0,0,1,.86.67,2.52,2.52,0,0,1-1.34.55A3.05,3.05,0,0,1,88.44,22Z"/><path id="path138" class="cls-1" d="M88.28,20.85h-.33a1.91,1.91,0,0,0,.61-1,2.77,2.77,0,0,0,1.14,0,1.42,1.42,0,0,1,1.2.16,1.37,1.37,0,0,1-1.07,1A2.3,2.3,0,0,1,88.28,20.85Z"/><path id="path140" class="cls-1" d="M88.61,19.46l-.12-.08a1.36,1.36,0,0,0-.58-.16,14.09,14.09,0,0,1,1.51-1.11,7.46,7.46,0,0,1,1.93-.78,5.32,5.32,0,0,1-.94,1.61A1.8,1.8,0,0,1,88.61,19.46Z"/><path id="path142" class="cls-1" d="M87.67,18.93l0-.05,0-.06,0-.06,0-.06,0-.07,0-.07,0-.07,0-.07,0-.07,0-.07,0-.07,0-.08,0-.08,0-.08,0-.09,0-.08a11.11,11.11,0,0,1,.49-1.58,2.86,2.86,0,0,1,1.66-1.37,3.15,3.15,0,0,1-.24,2A5.65,5.65,0,0,1,87.67,18.93Z"/><path id="path144" class="cls-1" d="M82.11,24.14l0,0,0,0,0,0h0l0,0h0l0,0H81.9l0,0h-.2a1.54,1.54,0,0,0,.07,1.34,18.66,18.66,0,0,1,.87,1.91s.21,0,.44-1.19a2.34,2.34,0,0,1,.56-1.24,1.51,1.51,0,0,1-.43.14l-.15,0L83,25.31a1.5,1.5,0,0,1-.18-.73,1.66,1.66,0,0,1,0-.2.74.74,0,0,1-.63-.26l0,0Z"/><path id="path146" class="cls-1" d="M88.32,26.19l.07.07.07.07.08.08.08.09.09.09.08.1.1.1.09.1.1.11.09.11.1.12.1.12.09.13.09.13.1.13.08.13.09.14.08.14.08.14.07.15.07.15.07.16.06.15.05.16.05.16,0,.16,0,.16,0,.16v.67a4,4,0,0,1-2.05-1.52,12.1,12.1,0,0,0-1.22-2,1.69,1.69,0,0,0,.48,0l.13,0A6.47,6.47,0,0,0,89.58,29s.17-.9-1.76-2.7a1.35,1.35,0,0,0-.13-.25,1.59,1.59,0,0,0,.61.09"/><path id="path148" class="cls-1" d="M77.07,11.75H78.2c.63,0,1.14.11,1.14.25s-.51.24-1.14.24S77.07,11.88,77.07,11.75Z"/><path id="path150" class="cls-1" d="M73.21,13.06h.74c.4,0,.73.06.73.13s-.34.13-.73.13S73.21,13.13,73.21,13.06Z"/><path id="path152" class="cls-1" d="M78.43,12.28H78.2a.23.23,0,0,1-.22-.23.23.23,0,0,1,.22-.22A.22.22,0,0,1,78.43,12.28Z"/><path id="path154" class="cls-1" d="M77,11.51l0-.09,0-.08,0-.07,0-.08,0-.07,0-.08,0-.07,0-.07,0-.07,0-.07,0-.07,0-.07,0-.07,0-.06,0-.06,0-.06,0-.06v-.1l0-.05V9.72c0-.13.16-.23.31-.28a.43.43,0,0,1,.39,0,5.81,5.81,0,0,1,.44,1.88A1.74,1.74,0,0,0,77,11.51Z"/><path id="path156" class="cls-1" d="M77.68,11.32H78a14.47,14.47,0,0,0-.33-1.61c-.1-.32-.22-.55-.43-.61a6.59,6.59,0,0,1,.25.9C77.55,10.44,77.61,10.89,77.68,11.32Z"/><path id="path158" class="cls-1" d="M76.48,12.93h.19l0,0h0l0,0,0,0,0,0,0,0,0,0,0,0,0,0,0,0,0,0,0,0,0,0,0,0h0l0,0,0,0h0l0,0h.07A1,1,0,0,0,76.48,12.93Z"/><path id="path160" class="cls-1" d="M77.11,12.9l-.06,0-.05,0-.05,0-.06,0-.05,0-.05,0h-.06l-.05,0h-.79a1.78,1.78,0,0,1,.61-.7,2,2,0,0,1,1.19-.3A1.57,1.57,0,0,1,77.11,12.9Z"/><path id="path164" class="cls-1" d="M77,13.2a10.86,10.86,0,0,1-2.5.26H74l-.06,0h-.07l-.06,0h-.06l-.06,0-.06,0H73.6l-.06,0h-.06l-.06,0h0l-.06,0,0,0h0l0,0,0,0h-.06l0,0h0l0,0h0c.08,1.58,1.16,1.68,1.16,1.68a2.33,2.33,0,0,1,0-.34,3.44,3.44,0,0,0,1,.54,1.15,1.15,0,0,0-.07-.36,1,1,0,0,0,.47.17,1.76,1.76,0,0,0-.17-.49.69.69,0,0,0,.45.28,1.18,1.18,0,0,0,0-.45,1.39,1.39,0,0,0,.9.6.86.86,0,0,0,.88-.22,1.77,1.77,0,0,1-1.14-.52.83.83,0,0,0,.43-.34.7.7,0,0,0-.37-.17A.8.8,0,0,0,77,13.2Zm-2.05.6v.06s-.93,0-1,.47a.7.7,0,0,1-.26-.49A7.8,7.8,0,0,0,74.92,13.8Z"/><path id="path166" class="cls-1" d="M72.87,13.34V14l0,.05v.05l0,.05,0,0,0,0a1.85,1.85,0,0,1-.53-.59C72.47,13.4,72.44,13.22,72.87,13.34Z"/><path id="path170" class="cls-1" d="M71.62,13.65a.62.62,0,0,0-.47.26.89.89,0,0,0,.32,1.2,1.24,1.24,0,0,1,1.51,0,2.34,2.34,0,0,1,.62-.21v0h0v0l0,0,0,0h0v0l0,0,0,0,0,0,0,0,0,0h0l0,0h0l0,0h0l0,0,0,0,0,0,0,0,0,0,0,0,0,0,0,0h0l0,0,0,0c-.25-.11-.78-.27-.93-.75A1.5,1.5,0,0,0,71.62,13.65Zm.39.63a.2.2,0,0,1,.19.19v0h0v0h0v0h0v0h0v0h0v0h0l0,0h0a.19.19,0,0,1,0-.37Z"/><path id="path172" class="cls-1" d="M73.69,15h.05v0h0v0h0v0l0,0v0l0,0,0,0,0,0,0,.05,0,0,0,0,0,0,0,0h0l0,0h0l0,0a1.46,1.46,0,0,0-1.4,1s-.38-.6-.1-1A1.32,1.32,0,0,1,73.69,15Z"/><path id="path174" class="cls-1" d="M74.92,15.22h.48s0-.21,0-.31l.36.07a6.08,6.08,0,0,0,.64,1.11.83.83,0,0,1-.14.45,3.62,3.62,0,0,0-.57-.85A4.25,4.25,0,0,0,74.92,15.22Z"/><path id="path176" class="cls-1" d="M74,15.05h.42l.07,0,.07,0,.07,0,.07,0,0,0h.07l0,0h.06l0,0h0a1.09,1.09,0,0,1,.55,1,2.27,2.27,0,0,0-.59-.57A3.34,3.34,0,0,1,74,15.05Z"/><path id="path178" class="cls-1" d="M74,11.42h.31a3.6,3.6,0,0,1-.34.76h0a3.54,3.54,0,0,1-.34-.76c0-.17.2-.22.31-.22H74Z"/><path id="path180" class="cls-1" d="M73.74,12.76v-.39l0-.07v-.52h0a.67.67,0,0,0-.46-.13.19.19,0,0,0-.17.25,8.91,8.91,0,0,0,.57.92Z"/><path id="path182" class="cls-1" d="M74.15,12.76v-.55l0-.07v-.36h0a.66.66,0,0,1,.46-.13.2.2,0,0,1,.17.25,8.81,8.81,0,0,1-.57.92Z"/><polygon id="polygon184" class="cls-1" points="74.45 10.59 74.09 10.59 74.09 10.19 73.8 10.19 73.8 10.59 73.44 10.59 73.44 10.84 73.8 10.84 73.8 11.3 74.09 11.3 74.09 10.84 74.45 10.84 74.45 10.59"/><path id="path186" class="cls-1" d="M70.09,13.15V13h0a1.89,1.89,0,0,0,0-.5c-.26.1-.44.16-.79.74C69.32,13.16,69.89,12.81,70.09,13.15Z"/><path id="path188" class="cls-1" d="M70.58,14.07h0v0h0v-.46l0-.07v-.07l0-.07,0-.07,0-.07v-.06a1.79,1.79,0,0,0-.12-1.29,1.85,1.85,0,0,1-.23-1,3.23,3.23,0,0,0-.53.23,2.05,2.05,0,0,0,.31,1,1.54,1.54,0,0,1,.07.83A1.65,1.65,0,0,0,70.58,14.07Z"/><path id="path190" class="cls-1" d="M70.62,11h0a2.61,2.61,0,0,1,1-.61.63.63,0,0,1,.55.13.6.6,0,0,0-.4.18A2.64,2.64,0,0,1,71,11,.71.71,0,0,1,70.62,11Z"/><path id="path192" class="cls-1" d="M72.19,10.37l0,0,0,0,0,0,0,0,0,0,0,0h0v0h0v0h0v0h0v0h0v0h0v0h0v0h0v0h0a2.62,2.62,0,0,1-.34.84,1.23,1.23,0,0,0-.26.7.7.7,0,0,0,.23.42s-.65-.16-.72-.55a1.14,1.14,0,0,1,.18-.81c.1-.19.4-.62.47-.8A.66.66,0,0,0,72.19,10.37Z"/><path id="path194" class="cls-1" d="M76,14.88,76,15l0,.09,0,.08,0,.08,0,.08,0,.08,0,.08,0,.07,0,.07,0,.08,0,.07,0,.07,0,.07,0,.07,0,.07,0,.06a2.19,2.19,0,0,1,.3,1A1.89,1.89,0,0,0,77,16,1.79,1.79,0,0,0,76,14.88Z"/><path id="path196" class="cls-1" d="M76.71,15h.66a1.67,1.67,0,0,1,.62,1,1.44,1.44,0,0,1-.67-.3A2.59,2.59,0,0,1,76.71,15Z"/><path id="path198" class="cls-1" d="M74.41,15.84H74a2.09,2.09,0,0,1,.57.26,1.15,1.15,0,0,1,.37.69A4.76,4.76,0,0,0,75.38,18h0a2.66,2.66,0,0,1,.21-1.12,1.85,1.85,0,0,1-.44-.39A2.37,2.37,0,0,0,74.41,15.84Z"/><path id="path200" class="cls-1" d="M76.38,16.88v.2l0,0v.07l0,.07,0,.07v.75c-.13.47-.43.67-.63,1.07a6,6,0,0,1-.12-1.27A1.17,1.17,0,0,1,76.38,16.88Z"/><path id="path202" class="cls-1" d="M77.24,16.89h0v.09l0,0v0l0,0,0,0,0,0v.05l0,0,0,0,0,.05,0,.1,0,.1,0,.05,0,0,0,0v.29a.84.84,0,0,1-.15.75,6.14,6.14,0,0,0-.64.84,2.12,2.12,0,0,1-.31-.55,2.59,2.59,0,0,1,.08-.83C76.81,18.13,77,17.51,77.24,16.89Z"/><path id="path204" class="cls-1" d="M77.46,19.64h-.06v0l0,0,0,0,0,0,0,0,0,0,0,0,0,0,0,0,0,0-.06.07-.05.07,0,0,0,0,0,0,0,0,0,0,0,0,0,0,0,0,0,0v.07h0a.9.9,0,0,0,0,.76,2.88,2.88,0,0,0,.85.78,2,2,0,0,1-.31-1c0-.29.25-.55.29-.72A1.35,1.35,0,0,0,77.46,19.64Z"/><path id="path206" class="cls-1" d="M76.45,19.29h.07v0h0v0h0v0h0l0,0v.37a1.89,1.89,0,0,1-.16.84A10.73,10.73,0,0,1,75.95,22a4.59,4.59,0,0,1-.38-.66,6,6,0,0,0,.54-.89A5.69,5.69,0,0,0,76.45,19.29Z"/><path id="path208" class="cls-1" d="M76.28,19.08h0v.43l0,.07v.07l0,.07,0,.08,0,.07,0,.08,0,.09,0,.08,0,.09,0,.09,0,.09,0,.09,0,.09-.05.09,0,.09-.06.1-.05.09-.06.08-.06.09-.07.09c-.49.61-.88.83-1.14.83a1.08,1.08,0,0,1-.93-.71,1.2,1.2,0,0,1,.16-1.17s.24.73.74.76S75.54,20.32,76.28,19.08Z"/><path id="path210" class="cls-1" d="M75.69,18.57v.87a1.24,1.24,0,0,1-.49.73.72.72,0,0,1-1-.36A1.6,1.6,0,0,0,75.69,18.57Z"/><path id="path212" class="cls-1" d="M77.4,23.51v.07l0,0v0l0,0,0,0,0,0,0,0,.05.07.05.07.06.07.05.07.05.07,0,0,0,0,0,0,0,0,0,0,0,0v.24a3.83,3.83,0,0,1-.43,1.48,2.17,2.17,0,0,1-.71-1A1.92,1.92,0,0,1,77.4,23.51Z"/><path id="path214" class="cls-1" d="M76.72,24v-.33l0-.07,0-.07,0-.07,0-.07,0,0v0l0,0,0,0,0,0,0,0,0,0,0,0,0,0,0,0,0,0,0,0a1.33,1.33,0,0,0-.72-1.57A3.33,3.33,0,0,0,76,22.68C75.87,23.22,76.45,23.55,76.72,24Z"/><path id="path216" class="cls-1" d="M75.39,21.58l0,0,0,0,0,0,0,0,0,0,0,0,0,0,0,0,0,0,0,0h0v0h-.17a3,3,0,0,0,0,.72,5.62,5.62,0,0,0,.45,1.2,3.15,3.15,0,0,0,.52-1c.05-.36,0-.65.06-.82C75.78,22.29,75.53,21.87,75.39,21.58Z"/><path id="path218" class="cls-1" d="M74.16,23.67v-.1l0,0v0l0,0,0,0,0,0,0,0,0,0,0-.05,0,0,0-.05,0,0,0-.05,0-.1,0-.11,0-.11v-.05l0-.05v-.43a1.22,1.22,0,0,0,1,.07,3.76,3.76,0,0,1,0,.93A.9.9,0,0,1,74.16,23.67Z"/><path id="path220" class="cls-1" d="M74.27,23.82h.11l0,0,0,0,0,0,0,0,0,0,0,0h.1s.35.64.41.83a.5.5,0,0,1-.37-.1A2.43,2.43,0,0,1,74.27,23.82Z"/><path id="path222" class="cls-1" d="M75.9,23.44h0v.06l0,0,0,0,0,0,0,0,0,0,0,0,0,0,0,0-.06.08-.06.09,0,0,0,0,0,0,0,0,0,0,0,0,0,0,0,0v0l0,0h-.06a2.52,2.52,0,0,0,.25.69,2.94,2.94,0,0,0,.66.84s.34-.61.45-.87a1.1,1.1,0,0,0,.05-.73C76.48,24.16,76.08,23.77,75.9,23.44Z"/><path id="path224" class="cls-1" d="M76.74,25.49v.1l0,0v0l0,0v0l0,0,0,0,0,.06,0,.07L77,26l0,.07,0,.07,0,.07v0l0,0v.26a1.18,1.18,0,0,1-.06.64c-.07.17-.3.52-.45.78a2.9,2.9,0,0,1-.63-.83,1.24,1.24,0,0,1,.07-.87C76.35,26,76.62,25.73,76.74,25.49Z"/><path id="path226" class="cls-1" d="M75.28,25.42v.16l0,.05,0,.06,0,.05,0,.05,0,.05,0,.05,0,.05,0,.05v.25a1.09,1.09,0,0,1,0,.84c-.13.31-.28.49-.34.67a4.5,4.5,0,0,1-.49-.76,1.56,1.56,0,0,1,0-.83C75,25.94,75.18,25.63,75.28,25.42Z"/><path id="path228" class="cls-1" d="M77.34,27.48h-.09l0,0,0,0,0,0,0,0,0,0,0,0,0,0,0,.05L77,28l0,.05,0,.05,0,.05,0,.06,0,.05,0,.05,0,.06,0,.05,0,.05,0,.06v.05l0,.05v.19c0,.58.4.95.46,1.31a4.43,4.43,0,0,0,.52-.71,1.65,1.65,0,0,0,.24-1A1.42,1.42,0,0,0,77.34,27.48Z"/><path id="path230" class="cls-1" d="M76,27.39h0v.18l0,0v.07l0,0v.07l0,.07v.6a5.12,5.12,0,0,1-.57,1,5.92,5.92,0,0,1-.34-.85C75.39,28.36,75.44,27.93,76,27.39Z"/><path id="path232" class="cls-1" d="M83.2,13.06h-.73c-.4,0-.73.06-.73.13s.33.13.73.13S83.2,13.13,83.2,13.06Z"/><path id="path234" class="cls-1" d="M78.21,10.81v-.4l0-.09,0-.1,0-.1,0-.09,0-.1v0l0,0V9.47a.43.43,0,0,0-.87,0c0,.31.38,1,.43,1.34h0Z"/><path id="path236" class="cls-1" d="M79.42,11.51l0-.09,0-.08,0-.07,0-.08,0-.07,0-.08,0-.07,0-.07,0-.07,0-.07,0-.07,0-.07,0-.07,0-.06,0-.06,0-.06V10.3l0-.05V9.72c0-.13-.16-.23-.31-.28a.45.45,0,0,0-.4,0,6.2,6.2,0,0,0-.45,1.88A1.65,1.65,0,0,1,79.42,11.51Z"/><path id="path238" class="cls-1" d="M78.74,11.32h-.29a12.87,12.87,0,0,1,.32-1.61c.1-.32.22-.55.43-.61A7.26,7.26,0,0,0,79,10C78.86,10.44,78.79,10.89,78.74,11.32Z"/><path id="path240" class="cls-1" d="M79.09,12.39h.07l0,0h0l0,0,0,0h0l0,0,0,0,0,0,0,0,0,0,0,0,0,0,0,0,0,0,0,0,0,0,0,0h0l0,0h.19A1,1,0,0,0,79.09,12.39Z"/><path id="path242" class="cls-1" d="M78.74,12.18h.93l0,0h0l0,0,0,0h0l0,0,0,0a1.74,1.74,0,0,1,.61.7,2.36,2.36,0,0,1-1.23-.28A1.53,1.53,0,0,1,78.74,12.18Z"/><path id="path246" class="cls-1" d="M79.44,13.2a.75.75,0,0,0,.41.43.64.64,0,0,0-.36.17.81.81,0,0,0,.41.34,1.75,1.75,0,0,1-1.14.52.87.87,0,0,0,.88.22,1.39,1.39,0,0,0,.9-.6,1.37,1.37,0,0,0,0,.45.72.72,0,0,0,.47-.28,1.57,1.57,0,0,0-.19.49,1,1,0,0,0,.47-.17,1.15,1.15,0,0,0-.07.36,3.55,3.55,0,0,0,1-.54v.24l0,0v.07s1.08-.1,1.16-1.68a4.12,4.12,0,0,1-1.44.22A10.57,10.57,0,0,1,79.44,13.2Zm2,.6a8,8,0,0,0,1.25,0v0h0v0l0,0v0l0,0v0l0,0v0h0v0l0,0v0l0,0,0,0v0h0l0,0v0h0l0,0v0h0l0,0,0,0c0-.46-1-.47-1-.47V13.8Z"/><path id="path248" class="cls-1" d="M83.55,13.34V14l0,.05v.05l0,.05v.05l0,0,0,0a1.85,1.85,0,0,0,.53-.59C84,13.4,84,13.22,83.55,13.34Z"/><path id="path252" class="cls-1" d="M84.45,13.65l0,0h0l0,0h0c-.16.48-.69.64-1,.75a2,2,0,0,0-.54.45,2.76,2.76,0,0,1,.64.21,1.24,1.24,0,0,1,1.51,0,.89.89,0,0,0,.32-1.2l0,0,0,0,0,0,0,0,0,0,0,0,0,0,0,0,0,0,0,0h0l0,0h0l0,0h-.41Zm-.06.63h.06v0h0v0h0l0,0v0h0v0h0v.07l0,0a.2.2,0,0,1-.19.19.18.18,0,0,1-.17-.19A.18.18,0,0,1,84.39,14.28Z"/><path id="path254" class="cls-1" d="M82.72,15h-.05v0h0l0,0v0h0l0,0v0l0,0v0l0,0,0,0,0,.05,0,0,0,0,0,0,0,0h0l0,0h0l0,0a1.46,1.46,0,0,1,1.4,1s.38-.6.1-1A1.32,1.32,0,0,0,82.72,15Z"/><path id="path256" class="cls-1" d="M81.5,15.22H81a2.36,2.36,0,0,1,0-.31l-.37.07A5.89,5.89,0,0,1,80,16.25a.83.83,0,0,0,.14.45,3.37,3.37,0,0,1,.57-.85A4.22,4.22,0,0,1,81.5,15.22Z"/><path id="path258" class="cls-1" d="M82.45,15.05H82l-.07,0-.07,0-.07,0-.07,0,0,0h-.07l0,0h-.06l0,0h0a1.11,1.11,0,0,0-.56,1,2.36,2.36,0,0,1,.6-.57A3.33,3.33,0,0,0,82.45,15.05Z"/><path id="path260" class="cls-1" d="M82.44,11.42h-.31a3.6,3.6,0,0,0,.34.76h0a3.54,3.54,0,0,0,.34-.76c0-.17-.2-.22-.31-.22h-.05Z"/><path id="path262" class="cls-1" d="M82.67,12.76v-.55l0-.07v-.36h0a.65.65,0,0,1,.46-.13.2.2,0,0,1,.17.25,8.81,8.81,0,0,1-.57.92Z"/><path id="path264" class="cls-1" d="M82.26,12.76V12.3l0-.08v-.43h0a.64.64,0,0,0-.46-.13.19.19,0,0,0-.16.25,6.78,6.78,0,0,0,.57.92Z"/><polygon id="polygon266" class="cls-1" points="81.97 10.59 82.32 10.59 82.32 10.19 82.62 10.19 82.62 10.59 82.98 10.59 82.98 10.84 82.62 10.84 82.62 11.3 82.32 11.3 82.32 10.84 81.97 10.84 81.97 10.59"/><polygon id="polygon268" class="cls-1" points="77.64 8.23 78.01 8.23 78.01 7.84 78.3 7.84 78.3 8.23 78.66 8.23 78.66 8.49 78.3 8.49 78.3 8.95 78.01 8.95 78.01 8.49 77.64 8.49 77.64 8.23"/><path id="path270" class="cls-1" d="M86.33,13.15V13h0a1.66,1.66,0,0,1,0-.5c.26.1.44.16.79.74C87.09,13.16,86.52,12.81,86.33,13.15Z"/><path id="path272" class="cls-1" d="M85.83,14.07h0v0h0v-.52l0-.07v-.07l0-.07,0-.07v-.06a1.83,1.83,0,0,1,.11-1.29,1.73,1.73,0,0,0,.23-1,3,3,0,0,1,.53.23,2.13,2.13,0,0,1-.31,1,1.41,1.41,0,0,0-.07.83A1.66,1.66,0,0,1,85.83,14.07Z"/><path id="path274" class="cls-1" d="M85.8,11h0a2.66,2.66,0,0,0-1-.61.58.58,0,0,0-.53.13.61.61,0,0,1,.39.18,2.71,2.71,0,0,0,.75.49A.74.74,0,0,0,85.8,11Z"/><path id="path276" class="cls-1" d="M84.22,10.37l0,0,0,0,0,0,0,0,0,0,0,0h0v0h0v0h0v0h0v0h0v0h0v0h0v0h0v0h0a2.6,2.6,0,0,0,.34.84,1.18,1.18,0,0,1,.27.7.74.74,0,0,1-.23.42s.65-.16.72-.55a1.13,1.13,0,0,0-.19-.81c-.1-.19-.4-.62-.47-.8A.74.74,0,0,1,84.22,10.37Z"/><path id="path278" class="cls-1" d="M80.43,14.88l0,.08,0,.09,0,.08,0,.08,0,.08,0,.08,0,.08,0,.07,0,.07,0,.08,0,.07,0,.07,0,.07,0,.07,0,.07,0,.06a1.93,1.93,0,0,0-.3,1A1.86,1.86,0,0,1,79.42,16,1.8,1.8,0,0,1,80.43,14.88Z"/><path id="path280" class="cls-1" d="M79.7,15H79a1.66,1.66,0,0,0-.61,1,1.47,1.47,0,0,0,.67-.3A2.59,2.59,0,0,0,79.7,15Z"/><path id="path282" class="cls-1" d="M82,15.84h.43a2.21,2.21,0,0,0-.58.26,1.11,1.11,0,0,0-.36.69A4.4,4.4,0,0,1,81,18h0a2.92,2.92,0,0,0-.21-1.12,2,2,0,0,0,.44-.39A2.27,2.27,0,0,1,82,15.84Z"/><path id="path284" class="cls-1" d="M80,16.88v.29l0,.07,0,.07v.75c.14.47.45.67.64,1.07a5.67,5.67,0,0,0,.11-1.27A1.15,1.15,0,0,0,80,16.88Z"/><path id="path286" class="cls-1" d="M78.21,18.19h0v-.1l0,0v0l0,0,0,0,0,0,0,0,0,0,0,0,0,0,0,0,.06-.09.06-.09,0,0,0-.05,0,0,0,0,0,0,0,0,0,0v-.27c0-.36-.51-.61-.63-.67h0c-.12.05-.6.31-.63.67s.61,1,.62,1.29h0Z"/><path id="path288" class="cls-1" d="M79.18,16.89h0V17l0,0v0l0,0v0l0,0,0,0,0,.05,0,0,0,0,0,.05,0,.1,0,.1,0,.05v0l0,0v.05l0,0v.19a.84.84,0,0,0,.14.75,5.17,5.17,0,0,1,.64.84,1.92,1.92,0,0,0,.31-.55,2.4,2.4,0,0,0-.08-.83C79.61,18.13,79.38,17.51,79.18,16.89Z"/><path id="path290" class="cls-1" d="M78.21,20.22l0,0,0,0,0,0,0,0,0,0,0,0,0,0,0,0,0,0,0,0v0h0v0h0v0h0v0h0a.6.6,0,0,0-.07-.55,1.55,1.55,0,0,1-.37-.62h0a1.38,1.38,0,0,1-.37.62.57.57,0,0,0-.06.55,1.87,1.87,0,0,0,.44.59h0Z"/><path id="path292" class="cls-1" d="M79,19.64H79v0l0,0,0,0,0,0,0,0,0,0,0,0,0,0,0,0,0,0,.06.07.05.07,0,0,0,0,0,0,0,0,0,0,0,0,0,0v0l0,0v.07h0a.87.87,0,0,1,0,.76,2.71,2.71,0,0,1-.85.78,2,2,0,0,0,.31-1,3.07,3.07,0,0,0-.28-.72A1.22,1.22,0,0,1,79,19.64Z"/><path id="path294" class="cls-1" d="M80,19.29h-.07v0h0v0h0v0h0l0,0v.37a1.92,1.92,0,0,0,.17.84A9.56,9.56,0,0,0,80.47,22a4.92,4.92,0,0,0,.37-.66,6.46,6.46,0,0,1-.55-.89A6.13,6.13,0,0,1,80,19.29Z"/><path id="path296" class="cls-1" d="M80.14,19.08h0v.49l0,.07,0,.07,0,.08,0,.07,0,.08,0,.09,0,.08,0,.09,0,.09,0,.09,0,.09,0,.09,0,.09.05.09.05.1.06.09.06.08.06.09.07.09c.49.61.88.83,1.14.83a1.08,1.08,0,0,0,.93-.71,1.22,1.22,0,0,0-.16-1.17s-.24.73-.75.76S80.87,20.32,80.14,19.08Z"/><path id="path298" class="cls-1" d="M80.73,18.57v.88a1.21,1.21,0,0,0,.49.73.71.71,0,0,0,1-.36A1.59,1.59,0,0,1,80.73,18.57Z"/><path id="path300" class="cls-1" d="M78.2,22.21h.34v0h0v0h0v0l0,0a1.26,1.26,0,0,0,.19-.84,2.76,2.76,0,0,0-.38-.67,1.14,1.14,0,0,1-.25.21h0A1.68,1.68,0,0,1,78,20.3a2.54,2.54,0,0,0-.37.67,1.22,1.22,0,0,0,.19.84A.84.84,0,0,0,78.2,22.21Z"/><path id="path302" class="cls-1" d="M78.2,24.26v-.14l0,0,0,0,0,0,0,0,0,0,0,0,0,0,0,0,.06-.09.07-.09.06-.09,0,0,0,0,0,0,0,0,0,0,0,0,0,0V23h0c-.1-.52-.43-.41-.68-.62h0c-.25.21-.59.1-.68.62C77.46,23.31,78.13,23.94,78.2,24.26Z"/><path id="path304" class="cls-1" d="M79,23.51v0l0,0v0l0,0,0,0,0,0,0,0,0,0-.05.07-.06.07-.05.07-.06.07-.05.07,0,0,0,0,0,0,0,0,0,0v0l0,0v.21a3.85,3.85,0,0,0,.42,1.48,2.16,2.16,0,0,0,.72-1A1.94,1.94,0,0,0,79,23.51Z"/><path id="path306" class="cls-1" d="M79.7,24v-.33l0-.07,0-.07,0-.07,0-.07,0,0,0,0,0,0,0,0,0,0,0,0,0,0,0,0,0,0,0,0,0,0,0,0a1.34,1.34,0,0,1,.73-1.57,3.45,3.45,0,0,1,.56,1.13C80.55,23.22,80,23.55,79.7,24Z"/><path id="path308" class="cls-1" d="M81,21.58l0,0,0,0,0,0,0,0,0,0,0,0,0,0,0,0,0,0,0,0h0l0,0h.16a3.23,3.23,0,0,1,0,.72,6,6,0,0,1-.45,1.2,3,3,0,0,1-.52-1,7.45,7.45,0,0,1-.07-.82S80.89,21.87,81,21.58Z"/><path id="path310" class="cls-1" d="M82.25,23.67V23.6l0,0v0l0,0,0,0v0l0,0,0,0,0,0,0-.05,0,0,0-.05,0,0,0-.05,0-.1,0-.11,0-.11,0-.05v-.49a1.19,1.19,0,0,1-1,.07,3.67,3.67,0,0,0,0,.93A1,1,0,0,0,82.25,23.67Z"/><path id="path312" class="cls-1" d="M82.14,23.82H82l0,0,0,0,0,0,0,0,0,0h-.11s-.34.64-.4.83a.48.48,0,0,0,.36-.1A2.23,2.23,0,0,0,82.14,23.82Z"/><path id="path314" class="cls-1" d="M80.52,23.44h0v0l0,0v0l0,0,0,0,0,0,0,0,0,0,0,0,0,0,.06.08.06.09,0,0,0,0,0,0,0,0,0,0,0,0,0,0,0,0,0,0v0h.06a2.63,2.63,0,0,1-.25.69,3.1,3.1,0,0,1-.66.84s-.34-.61-.45-.87a1.05,1.05,0,0,1-.05-.73C79.93,24.16,80.33,23.77,80.52,23.44Z"/><path id="path316" class="cls-1" d="M78.21,28.08V28h0v-.11l0,0v0l0,0,0-.05,0-.05,0-.05,0-.06,0-.06,0,0v0l0,0v-.16a.9.9,0,0,0,0-.66c-.1-.2-.46-.71-.51-.85h0c0,.14-.4.65-.51.85a.87.87,0,0,0,0,.66c.13.37.46.63.51.84Z"/><path id="path318" class="cls-1" d="M79.67,25.49v.13l0,0v0l0,0,0,0,0,0,0,.06,0,.07,0,.06,0,.07,0,.07,0,.07,0,0v.07l0,0v.19a1.26,1.26,0,0,0,.06.64c.07.17.3.52.45.78a2.9,2.9,0,0,0,.63-.83,1.24,1.24,0,0,0-.07-.87C80.06,26,79.79,25.73,79.67,25.49Z"/><path id="path320" class="cls-1" d="M81.13,25.42v.16l0,.05,0,.06,0,.05,0,.05,0,.05,0,.05,0,.05,0,.05v.25a1.09,1.09,0,0,0,0,.84c.13.31.28.49.34.67a4.12,4.12,0,0,0,.49-.76,1.42,1.42,0,0,0,0-.83A7.88,7.88,0,0,0,81.13,25.42Z"/><path id="path322" class="cls-1" d="M78.2,32.22V32l0-.05,0,0,0-.05,0-.05,0-.06,0-.06,0-.06,0-.06,0-.07,0-.06,0-.07,0-.07,0-.07,0-.07,0-.07,0-.07,0-.07,0-.07v-.55a2.62,2.62,0,0,0-.59-1.37h0a2.74,2.74,0,0,0-.59,1.37A8.07,8.07,0,0,0,78.2,32.22Z"/><path id="path324" class="cls-1" d="M79.08,27.48h.08l0,0,0,0,0,0,0,0,0,0,0,0,0,0,0,.05,0,.05,0,.05,0,.05,0,.05,0,.06,0,.05,0,.05,0,.06,0,.05,0,.05,0,.06v.29c0,.58-.4.95-.46,1.31a4.57,4.57,0,0,1-.52-.71,1.54,1.54,0,0,1-.24-1A1.36,1.36,0,0,1,79.08,27.48Z"/><path id="path326" class="cls-1" d="M80.4,27.39h0v.15l0,0v.1l0,0v.07l0,.07v.6a4.75,4.75,0,0,0,.56,1,6.64,6.64,0,0,0,.35-.85C81,28.36,81,27.93,80.4,27.39Z"/><path id="path328" class="cls-1" d="M78.7,33.61v-.46l0-.05V33l0-.05,0,0v0l0-.09,0-.08,0-.08,0-.07,0-.07v-.28a1.46,1.46,0,0,0-.25-1.2,11.42,11.42,0,0,1-.71,1.85l0,0s0,0,0,0A10.72,10.72,0,0,1,77.47,31a1.48,1.48,0,0,0-.25,1.2,5.79,5.79,0,0,1,.49,1.43c0,.68-.72.93-.72.93.26.09.55.13,1-.31A.92.92,0,0,0,78.2,34a1.33,1.33,0,0,0,.19.26c.47.44.76.4,1,.31C79.42,34.55,78.66,34.29,78.7,33.61Z"/><path id="path330" class="cls-1" d="M76.3,29.12v.22l0,.06,0,.06,0,.07,0,.06,0,.07v.24h0v0h0v0h0c.06.27,0,.6-.51.94a1.49,1.49,0,0,1-.44-.52.52.52,0,0,1,.07-.6A5.37,5.37,0,0,0,76.3,29.12Z"/><path id="path332" class="cls-1" d="M77.33,30.13h0v0h0v.49l0,.1,0,.1,0,.1v.09l0,.05v.13l0,0v0l0,0v0c-.31.53-.75.93-1.15.93s-.43-.22-.62-.31a.79.79,0,0,1,.5-.58A3.34,3.34,0,0,0,77.33,30.13Z"/><path id="path334" class="cls-1" d="M76,31.1h0l0,0h-.2a4,4,0,0,0-.71.36,4.89,4.89,0,0,0-.79.77A1.46,1.46,0,0,0,75,32a1.18,1.18,0,0,1,.45-.66C75.57,31.28,75.8,31.21,76,31.1Z"/><path id="path336" class="cls-1" d="M75.62,30.71h-.08v0h0v0h0v-.41s-.67.43-.87.58a5.92,5.92,0,0,0-.72.74s.51-.11.9-.24A4.32,4.32,0,0,0,75.62,30.71Z"/><path id="path338" class="cls-1" d="M74.48,31.43H74l-.1,0-.1,0-.11,0-.1,0-.11,0-.1,0H73a1.87,1.87,0,0,0-.91.63s.49.13.76.22a4.69,4.69,0,0,1,.89-.46C74,32.07,74.16,31.75,74.48,31.43Z"/><path id="path340" class="cls-1" d="M73.73,33.83h0v0h.07v0h0v0c-.05-.14-.35-.31-.53-.39s-1.1-.36-1.36-.44a1.38,1.38,0,0,0-.2.32c0,.07,0,.13.12.14s.77-.06.9,0,.09.22.09.34a.72.72,0,0,1,.4-.11C73.48,33.38,73.61,33.48,73.73,33.83Z"/><path id="path342" class="cls-1" d="M73,32.71h.59l0,0h.06a.43.43,0,0,0,.2-.18c.07-.12.34-.53.6-.58a1.67,1.67,0,0,1-.34-.06,3.94,3.94,0,0,0-.45.15A3.3,3.3,0,0,0,73,32.71Z"/><path id="path344" class="cls-1" d="M75.1,32.19h-.32s-.71.49-.79,1a.6.6,0,0,0,.25.68c.11.06.61.25.93-.4,0,0-.55.18-.7-.08a.71.71,0,0,1,.25-.76,1.14,1.14,0,0,1,.77-.21A2,2,0,0,0,75.1,32.19Z"/><path id="path346" class="cls-1" d="M70.44,37.84l0-.13,0-.13,0-.14v-.07l0-.07,0-.07,0-.07,0-.07,0-.07,0-.07,0-.07,0-.07,0-.07c.32-.68,1.11-2.5,2.76-2.81.15,0-.18-.42-.33-.4a2,2,0,0,0-.57.29s0-.39,0-.46-.06-.1-.13-.1-.46,0-.58.15a11.45,11.45,0,0,0-1.37,2.47c-.36.87-.61,1.14-1,1s-.6-.57-1.26-.43a1.34,1.34,0,0,0-.68.43.41.41,0,0,0,.43.24,2.59,2.59,0,0,1,1.23.35A2.24,2.24,0,0,0,70.44,37.84Z"/><path id="path348" class="cls-1" d="M77,32.22v.26l0,.05v0l0,.05,0,.05,0,.05,0,.05,0,0,0,.05,0,.05,0,.05,0,.05s-.49,2.31-2.31,2.48a1.22,1.22,0,0,1,.57-.84c.54-.37,1.34-.93,1.29-1.79,0,0-.15,0-.4.35s-.82,1.26-1.69,1.26a1.34,1.34,0,0,1,.52-.69,3.51,3.51,0,0,0,1.1-1A1.53,1.53,0,0,1,77,32.22Z"/><path id="path350" class="cls-1" d="M76.14,40.63l1.11,1.55.84-1.49-.3-.54-.58,1.05c-.1-.15-.37-.54-.74-1.05Z"/><polygon id="polygon352" class="cls-1" points="75.87 39.32 75.67 39.04 75.45 38.75 75.25 38.46 75.04 38.16 74.83 37.87 74.63 37.59 74.53 37.45 74.43 37.32 74.33 37.19 74.25 37.06 74.16 36.93 74.07 36.81 73.99 36.69 73.91 36.58 73.83 36.48 73.76 36.38 73.69 36.28 73.63 36.2 73.57 36.12 73.52 36.04 73.47 35.98 73.44 35.92 73.4 35.87 73.37 35.83 73.35 35.8 73.33 35.77 73.75 35.48 72.44 34.97 72.46 36.4 72.91 36.08 75.55 39.8 75.87 39.32"/><path id="path354" class="cls-1" d="M66.81,30.89l0,0,0,0,0,0,0,0h.49l0,0,.05,0,0,0,.05,0,0,0,.05,0,.05,0,0,0,.05,0,.05,0,.05,0,.05,0,.05,0,0,0,.05,0,.05,0c.55.51.9,1,.58,1.39s-.88,0-1.43-.46S66.49,31.24,66.81,30.89Z"/><path id="path356" class="cls-1" d="M67.71,37.16h-.05A1.46,1.46,0,0,1,67.19,36a1.51,1.51,0,1,1,3,0c0,.11,0,.29,0,.29s.32-.7.37-.81A1.93,1.93,0,0,0,67,35.18a3.35,3.35,0,0,1,.77-1.7,2,2,0,0,1,.87-.4,1.87,1.87,0,0,1-1.37-.65,2,2,0,0,1-.78-1.2,2.57,2.57,0,0,1-.11,1.14A4.94,4.94,0,0,0,65.85,35a4.46,4.46,0,0,0,1.27,2.23,1.13,1.13,0,0,1,.23.54s1.08,0,1.34,0c0,0,.25,0,.24-.19s-.14-.19-.26-.19A1.83,1.83,0,0,1,67.71,37.16Z"/><path id="path358" class="cls-1" d="M73.67,37.53l-.13,0-.13,0-.13,0-.13,0-.13,0-.13,0-.13,0-.13,0-.13,0-.13,0-.13,0-.13,0-.25,0-.25,0a6.38,6.38,0,0,1-1.24.07.37.37,0,0,1,0,.22.35.35,0,0,1,.07.2,6.62,6.62,0,0,0,1.26-.08,11.09,11.09,0,0,0,2.23-.54Z"/><path id="path360" class="cls-1" d="M74.81,37.48l.17-.1.17-.1.17-.11.17-.12.16-.13.17-.13.16-.14.17-.15.16-.16.16-.17.16-.17.16-.19.16-.2.16-.2.15-.22.08-.11.07-.12.14-.24a.91.91,0,0,1-.5,0l-.07.1a6.83,6.83,0,0,1-2.44,2.29Z"/><path id="path362" class="cls-1" d="M68.74,37.87H68c-.27,0-.57.1-.61.24s.07.29.2.5.28.06.39,0a4.76,4.76,0,0,0,.84-.49C68.89,38.06,68.93,37.9,68.74,37.87Z"/><path id="path364" class="cls-1" d="M69.37,38.28H69c-.17.07-.78.43-.83.6a.23.23,0,0,0,.14.3,1.19,1.19,0,0,0,.3.08A.5.5,0,0,0,69,39c.07-.1.36-.44.4-.52S69.44,38.32,69.37,38.28Z"/><path id="path366" class="cls-1" d="M69.45,38.66h-.1v0h0l0,0,0,0h0v0h-.14a.08.08,0,0,0,.09.11,1.89,1.89,0,0,0,.75-.22c.24-.16.4-.48.24-.6S69.73,38.35,69.45,38.66Z"/><path id="path368" class="cls-1" d="M69.58,37.74h-.46c-.09.13,0,.27.22.39s.71.22.8.09S70.11,37.88,69.58,37.74Z"/><path id="path370" class="cls-1" d="M80.11,29.12v.22l0,.06,0,.06,0,.07,0,.06,0,.07v.24h0v0h0v0h0c-.05.27,0,.6.51.94a1.4,1.4,0,0,0,.44-.52.53.53,0,0,0-.07-.6A5.44,5.44,0,0,1,80.11,29.12Z"/><path id="path372" class="cls-1" d="M79.08,30.13h0v0h0v.49l0,.1,0,.1,0,.1v.19l0,0v.09l0,0,0,0v0c.31.53.75.93,1.15.93s.44-.22.61-.31a.79.79,0,0,0-.5-.58A3.34,3.34,0,0,1,79.08,30.13Z"/><path id="path374" class="cls-1" d="M80.39,31.1h0l0,0h.19a3.77,3.77,0,0,1,.71.36,5.29,5.29,0,0,1,.8.77,1.48,1.48,0,0,1-.78,0,1.18,1.18,0,0,0-.45-.66C80.85,31.28,80.61,31.21,80.39,31.1Z"/><path id="path376" class="cls-1" d="M80.79,30.71h.08v0h0v0h0v-.41s.67.43.87.58a5.82,5.82,0,0,1,.71.74s-.51-.11-.9-.24A4.42,4.42,0,0,1,80.79,30.71Z"/><path id="path378" class="cls-1" d="M81.93,31.43h.44l.1,0,.11,0,.1,0,.11,0,.1,0,.1,0h.43a1.94,1.94,0,0,1,.91.63s-.5.13-.76.22a4.61,4.61,0,0,0-.9-.46C82.39,32.07,82.25,31.75,81.93,31.43Z"/><path id="path380" class="cls-1" d="M82.68,33.83h0v0h-.07v0h0v0a1.23,1.23,0,0,1,.53-.39c.3-.14,1.11-.36,1.37-.44a1.76,1.76,0,0,1,.2.32c0,.07,0,.13-.13.14s-.77-.06-.9,0-.1.22-.1.34a.72.72,0,0,0-.4-.11C82.93,33.38,82.81,33.48,82.68,33.83Z"/><path id="path382" class="cls-1" d="M83.41,32.71h-.6l0,0h-.06a.43.43,0,0,1-.2-.18c-.07-.12-.34-.53-.59-.58a1.63,1.63,0,0,0,.34-.06,3.46,3.46,0,0,1,.45.15A3.53,3.53,0,0,1,83.41,32.71Z"/><path id="path384" class="cls-1" d="M81.32,32.19h.31s.72.49.8,1a.6.6,0,0,1-.26.68c-.1.06-.6.25-.93-.4,0,0,.55.18.7-.08a.69.69,0,0,0-.25-.76,1.12,1.12,0,0,0-.76-.21A1.8,1.8,0,0,1,81.32,32.19Z"/><path id="path386" class="cls-1" d="M86,37.84l0-.13,0-.13,0-.14,0-.07,0-.07v-.07l0-.07,0-.07,0-.07,0-.07,0-.07,0-.07,0-.07c-.31-.68-1.11-2.5-2.75-2.81-.16,0,.17-.42.32-.4a2.09,2.09,0,0,1,.58.29v-.46a.12.12,0,0,1,.13-.1c.07,0,.46,0,.59.15a11.46,11.46,0,0,1,1.36,2.47c.37.87.61,1.14,1,1s.6-.57,1.26-.43a1.28,1.28,0,0,1,.68.43c-.05.1-.12.24-.43.24a2.61,2.61,0,0,0-1.23.35A2.24,2.24,0,0,1,86,37.84Z"/><path id="path388" class="cls-1" d="M79.42,32.22v.31l0,0,0,.05v.05l0,.05,0,.05,0,0,0,.05,0,.05-.06.1s.5,2.31,2.32,2.48a1.21,1.21,0,0,0-.58-.84c-.54-.37-1.34-.93-1.28-1.79,0,0,.13,0,.4.35s.82,1.26,1.7,1.26a1.34,1.34,0,0,0-.52-.69,3.43,3.43,0,0,1-1.1-1A1.58,1.58,0,0,0,79.42,32.22Z"/><path id="path390" class="cls-1" d="M78.21,34.46v.1l0,0,0,0,0,0,0,.05,0,.05,0,.05,0,.05,0,.05,0,.06,0,.06,0,.06.08.11.08.12.08.11,0,.06,0,.05,0,.05,0,.05,0,.05,0,0,0,0,0,0,0,0,0,0,0,0,0,0c.29.28,1,1,1.42,1.37A4.79,4.79,0,0,1,79,36.54a2,2,0,0,1-.76.25h0a2,2,0,0,1-.77-.25,4.73,4.73,0,0,1-1.73.84c.39-.37,1.12-1.1,1.42-1.37a6.66,6.66,0,0,0,1.09-1.55h0Z"/><path id="path392" class="cls-1" d="M78.21,37h.61a2.86,2.86,0,0,1-.61.88h0a2.76,2.76,0,0,1-.62-.88,1.55,1.55,0,0,0,.61.16h0Z"/><path id="path394" class="cls-1" d="M79.16,42.18l4.35-6.1.44.32L84,35l-1.32.5.41.3c-.21.31-3.46,4.86-3.87,5.43l-2-3.57L77,38l-1.75,2.65-.44-.29v1.4l1.33-.52-.45-.31c.25-.36,1.19-1.79,1.51-2.27Z"/><path id="path396" class="cls-1" d="M80,39.78l-.11-.16-.06-.08-.05-.08-.05-.07-.05-.08-.05-.07,0-.07-.05-.07,0-.07,0,0,0,0v0l0,0,0,0v0l0,0v-.05l0,0v0c-.1.2-.33.6-.58,1l-.31-.55.85-1.52.24.37.87,1.32Z"/><path id="path398" class="cls-1" d="M80.86,40.17l.31.48.44-.29v1.4l-1.33-.52.44-.31-.2-.31Z"/><path id="path400" class="cls-1" d="M89.61,30.89l0,0,0,0,0,0,0,0H89l-.05,0,0,0,0,0-.05,0,0,0-.05,0-.05,0-.05,0,0,0-.05,0-.05,0-.05,0-.05,0-.05,0-.05,0-.05,0c-.56.51-.9,1-.58,1.39s.87,0,1.43-.46S89.93,31.24,89.61,30.89Z"/><path id="path402" class="cls-1" d="M88.7,37.16h.06A1.45,1.45,0,0,0,89.22,36a1.51,1.51,0,1,0-3,0c0,.11,0,.29,0,.29s-.31-.7-.37-.81a1.93,1.93,0,0,1,3.59-.33,3.35,3.35,0,0,0-.77-1.7,2,2,0,0,0-.87-.4,1.86,1.86,0,0,0,1.36-.65,2,2,0,0,0,.78-1.2,2.55,2.55,0,0,0,.12,1.14A5,5,0,0,1,90.57,35a4.52,4.52,0,0,1-1.27,2.23,1,1,0,0,0-.23.54s-1.08,0-1.33,0c0,0-.26,0-.25-.19s.15-.19.27-.19A1.81,1.81,0,0,0,88.7,37.16Z"/><path id="path404" class="cls-1" d="M81.6,37.48l-.17-.1-.17-.1-.17-.11L80.93,37l-.17-.13-.17-.13-.16-.14-.16-.15-.16-.16-.16-.17L79.76,36l-.16-.19-.16-.2-.16-.2-.16-.22-.07-.11L79,35l-.14-.24a.91.91,0,0,0,.5,0,.75.75,0,0,1,.07.1,6.93,6.93,0,0,0,2.45,2.28Z"/><path id="path406" class="cls-1" d="M82.74,37.53l.13,0,.13,0,.13,0,.13,0,.13,0,.13,0,.13,0,.13,0,.13,0,.13,0,.13,0,.13,0,.25,0,.25,0a6.45,6.45,0,0,0,1.24.07.54.54,0,0,0,0,.22.38.38,0,0,0-.07.2,6.74,6.74,0,0,1-1.27-.08,11.27,11.27,0,0,1-2.23-.54Z"/><path id="path408" class="cls-1" d="M87.67,37.87h.78c.26,0,.56.1.6.24s-.07.29-.2.5-.28.06-.39,0a5.08,5.08,0,0,1-.84-.49C87.52,38.06,87.48,37.9,87.67,37.87Z"/><path id="path410" class="cls-1" d="M87,38.28h.39c.17.07.78.43.83.6a.24.24,0,0,1-.13.3,1.34,1.34,0,0,1-.31.08.47.47,0,0,1-.37-.18,5.53,5.53,0,0,1-.4-.52C87,38.44,87,38.32,87,38.28Z"/><path id="path412" class="cls-1" d="M87,38.66h.1v0h0l0,0,0,0,0,0h.13a.09.09,0,0,1-.1.11A1.83,1.83,0,0,1,86.5,39c-.25-.16-.4-.48-.24-.6S86.68,38.35,87,38.66Z"/><path id="path414" class="cls-1" d="M86.83,37.74h.47c.08.13,0,.27-.22.39s-.72.22-.81.09S86.3,37.88,86.83,37.74Z"/><path class="cls-2" d="M101.71,0H53.21V50h50V0ZM100.2,47h-44V3h44Z"/><path class="cls-2" d="M42,14.28a1.16,1.16,0,0,0-1-.47h-.69v.13l0,0v.54l0,.07v.75l0,.06v.3h2.15A3.39,3.39,0,0,0,42,14.28Z"/><path class="cls-2" d="M13.53,28.82c-.42,0-.74.34-1,1a8.62,8.62,0,0,0-.36,2.73,9,9,0,0,0,.36,2.75c.23.7.54,1,1,1h.13l0,0h0l0,0,0,0h0l0,0,0,0,0,0,0,0,0,0,0,0,0,0,0,0,0,0,0,0,0,0,0,0,0,0,0-.06,0,0,0-.06,0,0,0-.06,0-.06,0-.06,0-.06,0-.06,0-.06,0-.07a9.35,9.35,0,0,0,.34-2.78,9,9,0,0,0-.3-2.69C14.36,29.16,14,28.82,13.53,28.82Z"/><path class="cls-2" d="M16.79,13.57c-.47,0-.82.33-1.07,1a7.79,7.79,0,0,0-.39,2.71A8.17,8.17,0,0,0,15.73,20l0,.06,0,.06,0,.06,0,.06,0,.07,0,0,0,.06,0,.06,0,0,0,0,0,.06,0,0,0,0,0,0,0,0,0,0,0,0,0,0,0,0,0,0,0,0,0,0,0,0,0,0,0,0h0l0,0,0,0h.17c.48,0,.83-.32,1.08-1a8.08,8.08,0,0,0,.39-2.75,8.17,8.17,0,0,0-.34-2.67C17.69,13.91,17.32,13.57,16.79,13.57Z"/><path class="cls-2" d="M0,0V50H50V0ZM4.59,12.07h6.25v10.5H8.92V13.81H6.53v8.76H4.59ZM8.8,34.36a1.62,1.62,0,0,1-1.4.9,1.69,1.69,0,0,1-1.1-.47v3H4.58V27.4H6.48l.11,0h.09l.11,0h.09l.11,0,.09,0,.09,0,.09,0,.09,0,.09,0,.09,0,.09,0,.07,0,.07.06.09,0,.07.06.07.06.07.06.07.07.07.06.07.07.06.07.07.07.06.07.06.07.07.09.06.09.06.07,0,.09.06.09.06.11a5.63,5.63,0,0,1,.49,2.39A5.66,5.66,0,0,1,8.8,34.36Zm7,2.09A2.55,2.55,0,0,1,13.53,38a2.37,2.37,0,0,1-2.19-1.51,9.09,9.09,0,0,1-.73-4,8.58,8.58,0,0,1,.77-3.9,2.4,2.4,0,0,1,2.15-1.51h.19l.09,0,.09,0H14l.07,0,.09,0,.07,0,.09,0,.07,0,.07,0,.07,0,.07,0,.07,0,.07,0,.07,0,.07.06.06.06.07.06.06.06.07.06.06.06.07.07.06.07.06.07.06.07.07.07,0,.07.07.07,0,.09.06.09.06.09a8.29,8.29,0,0,1,.78,3.89A8.6,8.6,0,0,1,15.82,36.46ZM14.31,21.27a8.31,8.31,0,0,1-.82-4,7.8,7.8,0,0,1,.86-3.92,2.71,2.71,0,0,1,2.43-1.53h.11l.09,0h.21l.09,0,.09,0,.09,0,.09,0,.09,0,.07,0,.09,0,.09,0,.07,0,.09,0,.07,0,.07.06.07,0,.09.06.07.06.07.06.07.06.07.07.06.06.07.07.07.07.06.07.07.07.06.09.07.07.06.09.06.09.06.09a7.69,7.69,0,0,1,.9,3.92,7.83,7.83,0,0,1-.88,3.94,2.85,2.85,0,0,1-2.58,1.59A2.68,2.68,0,0,1,14.31,21.27Zm8.83,16.88h-.08a4.84,4.84,0,0,1-3.82-1.58,5.71,5.71,0,0,1-1.32-3.91,5.86,5.86,0,0,1,1.22-3.93A4.81,4.81,0,0,1,23,27.14h.09V29H23A3,3,0,0,0,20.53,30a4,4,0,0,0-.79,2.62v.58l0,.19,0,.18,0,.18,0,.16,0,.17.06.16.06.16.07.15.07.15.08.14.08.14.1.13.05.07,0,.06a3.06,3.06,0,0,0,2.5,1.08h.08Zm-.79-23.08v-3h1.93v2.8a.71.71,0,0,0,.22.56,1.37,1.37,0,0,0,1,.29h1.05V12.07h1.94v10.5H26.52V17.5H25.1a2.9,2.9,0,0,1-1.94-.69A2.22,2.22,0,0,1,22.35,15.07Zm7.26,23.08h-.08a4.86,4.86,0,0,1-3.82-1.58,5.75,5.75,0,0,1-1.32-3.91,5.9,5.9,0,0,1,1.22-3.93,4.82,4.82,0,0,1,3.9-1.58h.08V29H29.5A3.05,3.05,0,0,0,27,30a4,4,0,0,0-.79,2.62v.58l0,.19,0,.18,0,.18,0,.16,0,.17.05.16.07.16.07.15.07.15.07.14.09.14.09.13.1.13a3.05,3.05,0,0,0,2.49,1.08h.08Zm1.14-26.08h5.17v1.74H34.29v8.76H32.36V13.81H30.75Zm4.89,25.76s-.23-6.51-.25-6.89l-2.45,2.6v4.29H31.26V27.39H33V31l0,0,0,0,0,0,0,0,0,0,0,0,0,0,0-.05.05-.05.05-.06.06-.06.06-.07.07-.07.13-.14.14-.15L34,30l.16-.17.16-.17.17-.17.17-.18.35-.37.17-.19.17-.18.17-.17.16-.17.16-.16.15-.16.14-.15.13-.14.07-.07.06-.06.05-.06.05-.05.05-.05,0-.05,0,0,0,0,0,0,0,0,0,0,0,0v0h0v0l.13-.14.41,10.95Zm2.8-25.76H41.3a3.12,3.12,0,0,1,2,.56l.07.06,0,.06.06,0,.06.06.06.06,0,0,.06.07,0,0,0,.07.06.06,0,.06,0,.07,0,.06,0,.07,0,.06,0,.07,0,.07,0,.07,0,.07,0,.07,0,.07,0,.07,0,.07,0,.09,0,.07v.09l0,.07v.09l0,.09v.28l.9,7.68H43.17l-.56-5.14H40.2c0,.23-.19,5.14-.19,5.14H38.09ZM43.7,37.84s-.23-6.51-.25-6.89L41,33.55v4.29H39.32V27.39H41v3.68l3.86-4,.14-.14.41,10.95Z"/><path class="cls-2" d="M6.37,28.87H6.2V32a2.42,2.42,0,0,0,.22,1.14c.14.27.31.41.52.41s.41-.15.56-.45a2.87,2.87,0,0,0,.22-1.29,5.26,5.26,0,0,0-.36-2.24A1.12,1.12,0,0,0,6.37,28.87Z"/><path id="path52-2" data-name="path52" class="cls-2" d="M68.36,16.16l.07.16.08.15.08.16.1.16.05.07.06.08.05.08.06.08.07.08.07.08.07.08.07.08.08.09.08.08.08.09.09.09.1.09.1.09.1.09.11.1.11.09.12.1.12.1.13.1.14.1.13.1.15.1.15.1a1.21,1.21,0,0,1,.47,1.52c-.31.75-.9,1.79-.55,2.2a2.73,2.73,0,0,0,2.61.22,3.48,3.48,0,0,0,.59,1.05s-.18.35-.76.17a1.39,1.39,0,0,1-.08,1.1,1.45,1.45,0,0,1-1-.75,1.54,1.54,0,0,1-.81.66S71,24.9,71.12,24a1.7,1.7,0,0,1-1.34.93A1.4,1.4,0,0,1,70,23.21a1.77,1.77,0,0,1-1.54.25s-.16-.51.74-1.21a1.71,1.71,0,0,1-1.4-.9,1.64,1.64,0,0,1,1.48-.41A1.69,1.69,0,0,1,68,19.56a1.73,1.73,0,0,1,1.82.27,2.62,2.62,0,0,0-.66-.75A3.2,3.2,0,0,1,68.36,16.16Z"/><path id="path54-2" data-name="path54" class="cls-2" d="M72.44,27.93l0,0,0,0,0,0,0,0,0,0,0,0,0,0,0,0,0,0,0,0v0l0,0v0l0,0v-.08c.18,1.42.24,2.38,1,3.3a2.71,2.71,0,0,0,.16-2.11,1.55,1.55,0,0,1-.41-.19,3,3,0,0,1,.07,1.22S72.64,29.36,72.44,27.93Z"/><path id="path56-2" data-name="path56" class="cls-2" d="M71.11,27.78H71v0l0,0,0,0,0,0,0,0,0,0,0,0,0,0,0,0,0,0v0h0c-.07.82-.28,3,.45,3.67,0,0,.49-.37.67-3.53a3.43,3.43,0,0,1-.38.47,3.52,3.52,0,0,1-.24,1.71S70.89,29.3,71.11,27.78Z"/><path id="path58-2" data-name="path58" class="cls-2" d="M69.38,29.44l.05-.07.05-.08.05-.09.05-.1,0-.1,0-.1,0-.11,0-.11,0-.12,0-.12,0-.12,0-.13.06-.25,0-.12,0-.12,0-.12v-.11l0-.11v-.77h0v0h0l.25-.19.1-.09c0,.08,0,.16,0,.25a9,9,0,0,1-.6,3.35,3,3,0,0,1-1.14,1c-.69-1.24.14-2.9.84-4.06l.27-.11A6.21,6.21,0,0,0,69.38,29.44Z"/><path id="path60-2" data-name="path60" class="cls-2" d="M67.66,25.63v.17h0l0,.09a15.45,15.45,0,0,0-1.88,2.31,3.1,3.1,0,0,1-2.23,1.25A4.42,4.42,0,0,1,64.75,27,14.89,14.89,0,0,1,67.1,25a1.27,1.27,0,0,0,.7.1h.07a1,1,0,0,0-.18.35A6.33,6.33,0,0,0,65,27.7,7.4,7.4,0,0,0,67.66,25.63Z"/><path id="path62-2" data-name="path62" class="cls-2" d="M66.57,24.43l.06-.11.06-.09c-.57.22-2.57,1-3.22,1.31a4.43,4.43,0,0,0-2.09,2.65,3.72,3.72,0,0,0,2.47-.81c1.11-.92,2.41-2.21,3-2.62a.72.72,0,0,1-.13-.14,11.34,11.34,0,0,1-3.11,1.91,3.76,3.76,0,0,1,1-1.07A10.06,10.06,0,0,1,66.57,24.43Z"/><path id="path64-2" data-name="path64" class="cls-2" d="M65.43,23.51h0v0h0v0h0c-.66.14-2.32.34-3.06.56a4.64,4.64,0,0,0-2.86,2.28s1.17.36,3.36-.67a20.32,20.32,0,0,1,3.3-1.36,1.52,1.52,0,0,1-.7-.21,8.77,8.77,0,0,1-3.21.88,7.43,7.43,0,0,1,1.17-.66A15.2,15.2,0,0,1,65.43,23.51Z"/><path id="path66-2" data-name="path66" class="cls-2" d="M65.48,22.42l0,0h.07l0,0h.5a1.87,1.87,0,0,0-.43.39,21.91,21.91,0,0,1-4.27.62,9,9,0,0,1-3.33-.24,9.72,9.72,0,0,1,2.78-1.09c.82-.16,3-.13,3.9-.27a2.76,2.76,0,0,0,.32.22,11.4,11.4,0,0,0-3.36.58A10,10,0,0,0,65.48,22.42Z"/><path id="path68-2" data-name="path68" class="cls-2" d="M65.32,21.17h.4a19.49,19.49,0,0,0-4.88-1,12.18,12.18,0,0,0-3.5.15,10.27,10.27,0,0,0,3.26,1.45,16.74,16.74,0,0,0,4.17.14,2.38,2.38,0,0,1,.27-.33,16.87,16.87,0,0,1-3.93-.54A9.54,9.54,0,0,1,65.32,21.17Z"/><path id="path70-2" data-name="path70" class="cls-2" d="M65.32,19.88h0v.26l0,0,0,0,0,0,0,0,0,0,0,0,0,0,0,0,0,0,0,0,0,0,0,0,.05,0,.05,0,.06,0,.05,0,.07,0,.07,0c-1.55-.67-4.6-1.06-6.22-1.75-2.21-.91-2.62-2.06-2.62-2.06a13.83,13.83,0,0,1,4.65.78c1.4.43,3.53,1.22,4.27,1.55a1.53,1.53,0,0,0-.84.26,24.87,24.87,0,0,0-2.47-.84,8.92,8.92,0,0,0-1.76-.29,7.68,7.68,0,0,0,1.73.78A16.09,16.09,0,0,0,65.32,19.88Z"/><path id="path72-2" data-name="path72" class="cls-2" d="M65.2,18.19h.08v0h0l0,0,0,0,0,0,0,0v0h.11a11,11,0,0,1-6-3.41A4.48,4.48,0,0,1,59,12.41a10.23,10.23,0,0,1,3,2.13c.46.45,1.83,1.79,2.78,2.53l.29.85c-.81-.65-1.77-1.37-2.38-1.83A7.36,7.36,0,0,0,60.82,15,8.44,8.44,0,0,0,62,16.24a12.23,12.23,0,0,0,1.68,1.14C64.08,17.63,64.31,17.77,65.2,18.19Z"/><path id="path74-2" data-name="path74" class="cls-2" d="M72.09,25h.19A5.07,5.07,0,0,1,73,25.93c.14.4.29.94.37,1.25a5.54,5.54,0,0,0,.43,1.19,1.23,1.23,0,0,1-1-.44,2.78,2.78,0,0,1-.65-1.53A5.88,5.88,0,0,1,72.09,25Z"/><path id="path76-2" data-name="path76" class="cls-2" d="M71.14,25.11h.22l.09,0,.08,0,.2-.08a2.17,2.17,0,0,1,.15.56,3,3,0,0,1,0,1,2.25,2.25,0,0,1-.52.85,2.82,2.82,0,0,1-.5-.78,2,2,0,0,1,0-1.24A2,2,0,0,1,71.14,25.11Z"/><path id="path78-2" data-name="path78" class="cls-2" d="M69.81,25.15h.28l.07,0h.07l.06,0,.06,0,.05,0,.05,0,.06,0,0,0,.05,0,0,0,0,0,0,0a1,1,0,0,1,.07.59,1.49,1.49,0,0,1-.52.78,2,2,0,0,1-1.53.52S68.63,26.25,69.81,25.15Z"/><path id="path80-2" data-name="path80" class="cls-2" d="M69.36,24.41v.52h0v0h.07a1.78,1.78,0,0,1-1.69.88.84.84,0,0,1,.41-1.05A3.38,3.38,0,0,1,69.36,24.41Z"/><path id="path82-2" data-name="path82" class="cls-2" d="M69.45,23.67H68.37l-.12,0,0-.12c-.53.44-1.17.52-1.39.91a.93.93,0,0,0,1,.4A2.31,2.31,0,0,0,69.38,24,1.21,1.21,0,0,1,69.45,23.67Z"/><path id="path84-2" data-name="path84" class="cls-2" d="M68.25,23.06v0l0,0v-.07l0,0v0l0,0v0l0,0,0,0v0h0V22.6h0v0l0,0v0l0,0h0a3.46,3.46,0,0,0-1.41,0,1.76,1.76,0,0,0-1.63,1.24,1.39,1.39,0,0,0,1.17.2A2.36,2.36,0,0,0,68.25,23.06Z"/><path id="path86-2" data-name="path86" class="cls-2" d="M68,22l0,0,0,0,0,0,0,0,0,0,0,0,0,0,0,0,0,0,0,0,0,0,0,0,0,0,0,0,0,0,0,0-.05-.12a2.33,2.33,0,0,0-1.7-.13,1.52,1.52,0,0,0-.86.67,2.53,2.53,0,0,0,1.35.55A3,3,0,0,0,68,22Z"/><path id="path88-2" data-name="path88" class="cls-2" d="M68.14,20.85h.32a2,2,0,0,1-.61-1,2.74,2.74,0,0,1-1.13,0,1.42,1.42,0,0,0-1.2.16,1.36,1.36,0,0,0,1.06,1A2.32,2.32,0,0,0,68.14,20.85Z"/><path id="path90-2" data-name="path90" class="cls-2" d="M67.8,19.46l.12-.08a1.37,1.37,0,0,1,.58-.16A14.2,14.2,0,0,0,67,18.11a7.25,7.25,0,0,0-1.93-.78A5.5,5.5,0,0,0,66,18.93,1.81,1.81,0,0,0,67.8,19.46Z"/><path id="path92-2" data-name="path92" class="cls-2" d="M68.74,18.93l0-.05,0-.06,0-.06,0-.06,0-.07,0-.07,0-.07,0-.07,0-.07,0-.07,0-.07,0-.08,0-.08,0-.08,0-.09,0-.08a13.48,13.48,0,0,0-.49-1.58,2.86,2.86,0,0,0-1.66-1.37,3.15,3.15,0,0,0,.24,2A5.58,5.58,0,0,0,68.74,18.93Z"/><path id="path94-2" data-name="path94" class="cls-2" d="M74.3,24.14l0,0,0,0,0,0h0l0,0h0l0,0h0l0,0h.2a1.51,1.51,0,0,1-.07,1.34,18.32,18.32,0,0,0-.87,1.91s-.21,0-.44-1.19a2.28,2.28,0,0,0-.56-1.24,1.37,1.37,0,0,0,.43.14l.15,0,.07-.15a1.57,1.57,0,0,0,.17-.73,1.64,1.64,0,0,0,0-.2.75.75,0,0,0,.63-.26v0Z"/><path id="path96-2" data-name="path96" class="cls-2" d="M65.79,15.29h0v.34l0,.28-2-2.51a5.26,5.26,0,0,0-1.29-1.2A6,6,0,0,0,64,14.55a16.3,16.3,0,0,0,1.79,1.58l.06.21a2.65,2.65,0,0,0,.23.6,5.11,5.11,0,0,0,.6.79c-.19-.1-.41-.2-.63-.29l-.21-.09A11.76,11.76,0,0,1,61.57,13a5.72,5.72,0,0,1-.24-3.84A18,18,0,0,1,63.84,12a25.52,25.52,0,0,1,1.94,3.27v0Z"/><path id="path98-2" data-name="path98" class="cls-2" d="M91.09,21.17h-.4a19.63,19.63,0,0,1,4.89-1,12.14,12.14,0,0,1,3.49.15,10.38,10.38,0,0,1-3.26,1.45,16.79,16.79,0,0,1-4.18.14,1.84,1.84,0,0,0-.26-.33,16.93,16.93,0,0,0,3.93-.54A9.57,9.57,0,0,0,91.09,21.17Z"/><path id="path100-2" data-name="path100" class="cls-2" d="M91.1,19.88h0v.22l0,0v0l0,0,0,0,0,0,0,0,0,0,0,0,0,0,0,0,0,0,0,0,0,0,0,0-.06,0-.05,0-.06,0-.06,0-.07,0c1.55-.67,4.59-1.06,6.23-1.75,2.2-.91,2.61-2.06,2.61-2.06a13.87,13.87,0,0,0-4.65.78c-1.4.43-3.52,1.22-4.27,1.55a1.54,1.54,0,0,1,.84.26,25.47,25.47,0,0,1,2.47-.84,9,9,0,0,1,1.76-.29,7.51,7.51,0,0,1-1.73.78A16.5,16.5,0,0,1,91.1,19.88Z"/><path id="path102-2" data-name="path102" class="cls-2" d="M91.22,18.19h-.08l0,0,0,0,0,0,0,0,0,0v0H90.9a11,11,0,0,0,6-3.41,4.45,4.45,0,0,0,.6-2.85,10.36,10.36,0,0,0-3,2.13c-.45.45-1.82,1.79-2.77,2.53l-.29.85c.81-.65,1.77-1.37,2.37-1.83A7.28,7.28,0,0,1,95.6,15a9,9,0,0,1-1.14,1.23,12.26,12.26,0,0,1-1.69,1.14C92.33,17.63,92.1,17.77,91.22,18.19Z"/><path id="path104-2" data-name="path104" class="cls-2" d="M90.63,15.29v.35l0,.28c.59-.75,1.3-1.67,2-2.51a5.53,5.53,0,0,1,1.29-1.2,5.93,5.93,0,0,1-1.49,2.34,16.3,16.3,0,0,1-1.79,1.58l-.06.21a3.11,3.11,0,0,1-.24.6,5,5,0,0,1-.59.79c.19-.1.4-.2.63-.29l.2-.09A11.76,11.76,0,0,0,94.84,13a5.59,5.59,0,0,0,.24-3.84A17.92,17.92,0,0,0,92.57,12a25.66,25.66,0,0,0-1.94,3.27v0Z"/><path id="path106-2" data-name="path106" class="cls-2" d="M68.1,26.19l-.07.07-.07.07-.08.08-.08.09-.09.09-.09.1-.09.1-.09.1-.1.11-.1.11-.09.12-.1.12-.09.13-.1.13-.09.13-.09.13L66.6,28l-.08.14-.08.14-.07.15-.07.15-.06.16-.06.15-.06.16,0,.16,0,.16,0,.16,0,.16v.67A4,4,0,0,0,68,28.89a12,12,0,0,1,1.22-2,1.68,1.68,0,0,1-.48,0l-.13,0A6.49,6.49,0,0,1,66.83,29s-.16-.9,1.77-2.7a1.83,1.83,0,0,1,.12-.25,1.55,1.55,0,0,1-.61.09"/><path id="path108-2" data-name="path108" class="cls-2" d="M88.06,16.16l-.07.16-.08.15-.08.16-.1.16-.05.07-.05.08-.06.08-.06.08-.06.08-.07.08-.07.08-.07.08-.07.09-.08.08L87,17.7l-.09.09-.1.09-.1.09-.1.09-.11.1-.11.09-.12.1-.12.1-.13.1-.13.1-.14.1-.15.1-.15.1A1.2,1.2,0,0,0,85,20.47c.31.75.9,1.79.55,2.2a2.74,2.74,0,0,1-2.62.22,3.55,3.55,0,0,1-.58,1.05s.18.35.76.17a1.39,1.39,0,0,0,.08,1.1,1.42,1.42,0,0,0,1-.75,1.54,1.54,0,0,0,.81.66s.46-.23.35-1.13a1.7,1.7,0,0,0,1.35.93,1.4,1.4,0,0,0-.18-1.73,1.76,1.76,0,0,0,1.54.25s.16-.51-.74-1.21a1.71,1.71,0,0,0,1.4-.9,1.66,1.66,0,0,0-1.49-.41,1.69,1.69,0,0,0,1.2-1.38,1.72,1.72,0,0,0-1.82.27,2.62,2.62,0,0,1,.67-.75A3.25,3.25,0,0,0,88.06,16.16Z"/><path id="path110-2" data-name="path110" class="cls-2" d="M84,27.93l0,0,0,0,0,0,0,0,0,0,0,0,0,0,0,0,0,0v0l0,0v0l0,0v-.11c-.17,1.42-.23,2.38-1,3.3a2.75,2.75,0,0,1-.16-2.11,1.36,1.36,0,0,0,.41-.19,3.13,3.13,0,0,0-.07,1.22S83.77,29.36,84,27.93Z"/><path id="path112-2" data-name="path112" class="cls-2" d="M85.3,27.78h.1v0l0,0,0,0,0,0,0,0,0,0,0,0,0,0,0,0,0,0v0h0c.07.82.28,3-.44,3.67,0,0-.5-.37-.67-3.53a4.17,4.17,0,0,0,.37.47,3.52,3.52,0,0,0,.24,1.71S85.53,29.3,85.3,27.78Z"/><path id="path114-2" data-name="path114" class="cls-2" d="M87,29.44,87,29.37l-.05-.08-.05-.09,0-.1-.05-.1,0-.1,0-.11,0-.11,0-.12,0-.12,0-.12,0-.13-.05-.25,0-.12,0-.12,0-.12v-.11l0-.11v-.77h0v0h0a2,2,0,0,1-.25-.19.6.6,0,0,1-.1-.09,1.37,1.37,0,0,1,0,.25,9.1,9.1,0,0,0,.61,3.35,3,3,0,0,0,1.14,1c.69-1.24-.14-2.9-.85-4.06l-.26-.11A6.45,6.45,0,0,1,87,29.44Z"/><path id="path116-2" data-name="path116" class="cls-2" d="M88.76,25.63h0v.12h0l0,.09a15.45,15.45,0,0,1,1.88,2.31A3.09,3.09,0,0,0,92.8,29.6,4.43,4.43,0,0,0,91.66,27,15.18,15.18,0,0,0,89.31,25a1.27,1.27,0,0,1-.7.1h-.07a1,1,0,0,1,.18.35,6.38,6.38,0,0,1,2.64,2.3A7.39,7.39,0,0,1,88.76,25.63Z"/><path id="path118-2" data-name="path118" class="cls-2" d="M89.85,24.43l-.06-.11-.06-.09c.56.22,2.56,1,3.21,1.31A4.41,4.41,0,0,1,95,28.19a3.7,3.7,0,0,1-2.47-.81c-1.11-.92-2.41-2.21-3-2.62a.59.59,0,0,0,.13-.14,11.34,11.34,0,0,0,3.11,1.91,3.71,3.71,0,0,0-1-1.07A9.83,9.83,0,0,0,89.85,24.43Z"/><path id="path120-2" data-name="path120" class="cls-2" d="M91,23.51h0v0h0v0h0v0c.66.14,2.32.34,3.06.56a4.66,4.66,0,0,1,2.86,2.28s-1.17.36-3.36-.67a20.1,20.1,0,0,0-3.29-1.36,1.52,1.52,0,0,0,.69-.21,8.77,8.77,0,0,0,3.21.88,7.32,7.32,0,0,0-1.18-.66A14.55,14.55,0,0,0,91,23.51Z"/><path id="path122-2" data-name="path122" class="cls-2" d="M90.94,22.42l0,0h-.08l0,0h-.51a1.9,1.9,0,0,1,.43.39,21.71,21.71,0,0,0,4.26.62,9,9,0,0,0,3.33-.24,9.73,9.73,0,0,0-2.78-1.09c-.81-.16-3-.13-3.9-.27a1.87,1.87,0,0,1-.31.22,11.36,11.36,0,0,1,3.35.58A10,10,0,0,1,90.94,22.42Z"/><path id="path124-2" data-name="path124" class="cls-2" d="M84.32,25l0,0h-.16a4.76,4.76,0,0,0-.68,1.09c-.13.4-.29.94-.36,1.25a6.44,6.44,0,0,1-.43,1.19,1.21,1.21,0,0,0,1-.44,2.67,2.67,0,0,0,.65-1.53A5.47,5.47,0,0,0,84.32,25Z"/><path id="path126-2" data-name="path126" class="cls-2" d="M85.27,25.11H85l-.07,0-.09,0-.2-.08a2.14,2.14,0,0,0-.14.56,2.77,2.77,0,0,0,0,1,2.26,2.26,0,0,0,.52.85,2.66,2.66,0,0,0,.5-.78,2,2,0,0,0,0-1.24A1.68,1.68,0,0,0,85.27,25.11Z"/><path id="path128-2" data-name="path128" class="cls-2" d="M86.61,25.15h-.28l-.07,0H86.2l-.06,0-.06,0L86,25,86,25l-.05,0-.05,0,0,0-.05,0,0,0,0,0a.94.94,0,0,0-.07.59,1.45,1.45,0,0,0,.52.78,2,2,0,0,0,1.52.52S87.79,26.25,86.61,25.15Z"/><path id="path130-2" data-name="path130" class="cls-2" d="M87.06,24.41v.52h0v0H86.8a1.77,1.77,0,0,0,1.69.88.84.84,0,0,0-.42-1.05A3.36,3.36,0,0,0,87.06,24.41Z"/><path id="path132-2" data-name="path132" class="cls-2" d="M87,23.67H88l.12,0,0-.12c.53.44,1.17.52,1.39.91a.93.93,0,0,1-1,.4A2.31,2.31,0,0,1,87,24,2.18,2.18,0,0,0,87,23.67Z"/><path id="path134-2" data-name="path134" class="cls-2" d="M88.17,23.06h0l0,0v-.07l0,0v0l0,0,0,0v0l0,0v0h0V22.6h0v0l0,0v0l0,0h0a3.45,3.45,0,0,1,1.41,0,1.76,1.76,0,0,1,1.63,1.24,1.4,1.4,0,0,1-1.17.2A2.34,2.34,0,0,1,88.17,23.06Z"/><path id="path136-2" data-name="path136" class="cls-2" d="M88.44,22l0,0,0,0,0,0,0,0,0,0,0,0,0,0,0,0,0,0,0,0,0,0,0,0,0,0,0,0,0,0,0,0,.05-.12a2.33,2.33,0,0,1,1.7-.13,1.51,1.51,0,0,1,.86.67,2.52,2.52,0,0,1-1.34.55A3.05,3.05,0,0,1,88.44,22Z"/><path id="path138-2" data-name="path138" class="cls-2" d="M88.28,20.85h-.33a1.91,1.91,0,0,0,.61-1,2.77,2.77,0,0,0,1.14,0,1.42,1.42,0,0,1,1.2.16,1.37,1.37,0,0,1-1.07,1A2.3,2.3,0,0,1,88.28,20.85Z"/><path id="path140-2" data-name="path140" class="cls-2" d="M88.61,19.46l-.12-.08a1.36,1.36,0,0,0-.58-.16,14.09,14.09,0,0,1,1.51-1.11,7.46,7.46,0,0,1,1.93-.78,5.32,5.32,0,0,1-.94,1.61A1.8,1.8,0,0,1,88.61,19.46Z"/><path id="path142-2" data-name="path142" class="cls-2" d="M87.67,18.93l0-.05,0-.06,0-.06,0-.06,0-.07,0-.07,0-.07,0-.07,0-.07,0-.07,0-.07,0-.08,0-.08,0-.08,0-.09,0-.08a11.11,11.11,0,0,1,.49-1.58,2.86,2.86,0,0,1,1.66-1.37,3.15,3.15,0,0,1-.24,2A5.65,5.65,0,0,1,87.67,18.93Z"/><path id="path144-2" data-name="path144" class="cls-2" d="M82.11,24.14l0,0,0,0,0,0h0l0,0h0l0,0H81.9l0,0h-.2a1.54,1.54,0,0,0,.07,1.34,18.66,18.66,0,0,1,.87,1.91s.21,0,.44-1.19a2.34,2.34,0,0,1,.56-1.24,1.51,1.51,0,0,1-.43.14l-.15,0L83,25.31a1.5,1.5,0,0,1-.18-.73,1.66,1.66,0,0,1,0-.2.74.74,0,0,1-.63-.26l0,0Z"/><path id="path146-2" data-name="path146" class="cls-2" d="M88.32,26.19l.07.07.07.07.08.08.08.09.09.09.08.1.1.1.09.1.1.11.09.11.1.12.1.12.09.13.09.13.1.13.08.13.09.14.08.14.08.14.07.15.07.15.07.16.06.15.05.16.05.16,0,.16,0,.16,0,.16v.67a4,4,0,0,1-2.05-1.52,12.1,12.1,0,0,0-1.22-2,1.69,1.69,0,0,0,.48,0l.13,0A6.47,6.47,0,0,0,89.58,29s.17-.9-1.76-2.7a1.35,1.35,0,0,0-.13-.25,1.59,1.59,0,0,0,.61.09"/><path id="path148-2" data-name="path148" class="cls-2" d="M77.07,11.75H78.2c.63,0,1.14.11,1.14.25s-.51.24-1.14.24S77.07,11.88,77.07,11.75Z"/><path id="path150-2" data-name="path150" class="cls-2" d="M73.21,13.06h.74c.4,0,.73.06.73.13s-.34.13-.73.13S73.21,13.13,73.21,13.06Z"/><path id="path152-2" data-name="path152" class="cls-2" d="M78.43,12.28H78.2a.23.23,0,0,1-.22-.23.23.23,0,0,1,.22-.22A.22.22,0,0,1,78.43,12.28Z"/><path id="path154-2" data-name="path154" class="cls-2" d="M77,11.51l0-.09,0-.08,0-.07,0-.08,0-.07,0-.08,0-.07,0-.07,0-.07,0-.07,0-.07,0-.07,0-.07,0-.06,0-.06,0-.06,0-.06v-.1l0-.05V9.72c0-.13.16-.23.31-.28a.43.43,0,0,1,.39,0,5.81,5.81,0,0,1,.44,1.88A1.74,1.74,0,0,0,77,11.51Z"/><path id="path156-2" data-name="path156" class="cls-2" d="M77.68,11.32H78a14.47,14.47,0,0,0-.33-1.61c-.1-.32-.22-.55-.43-.61a6.59,6.59,0,0,1,.25.9C77.55,10.44,77.61,10.89,77.68,11.32Z"/><path id="path158-2" data-name="path158" class="cls-2" d="M76.48,12.93h.19l0,0h0l0,0,0,0,0,0,0,0,0,0,0,0,0,0,0,0,0,0,0,0,0,0,0,0h0l0,0,0,0h0l0,0h.07A1,1,0,0,0,76.48,12.93Z"/><path id="path160-2" data-name="path160" class="cls-2" d="M77.11,12.9l-.06,0-.05,0-.05,0-.06,0-.05,0-.05,0h-.06l-.05,0h-.79a1.78,1.78,0,0,1,.61-.7,2,2,0,0,1,1.19-.3A1.57,1.57,0,0,1,77.11,12.9Z"/><path id="path164-2" data-name="path164" class="cls-2" d="M77,13.2a10.86,10.86,0,0,1-2.5.26H74l-.06,0h-.07l-.06,0h-.06l-.06,0-.06,0H73.6l-.06,0h-.06l-.06,0h0l-.06,0,0,0h0l0,0,0,0h-.06l0,0h0l0,0h0c.08,1.58,1.16,1.68,1.16,1.68a2.33,2.33,0,0,1,0-.34,3.44,3.44,0,0,0,1,.54,1.15,1.15,0,0,0-.07-.36,1,1,0,0,0,.47.17,1.76,1.76,0,0,0-.17-.49.69.69,0,0,0,.45.28,1.18,1.18,0,0,0,0-.45,1.39,1.39,0,0,0,.9.6.86.86,0,0,0,.88-.22,1.77,1.77,0,0,1-1.14-.52.83.83,0,0,0,.43-.34.7.7,0,0,0-.37-.17A.8.8,0,0,0,77,13.2Zm-2.05.6v.06s-.93,0-1,.47a.7.7,0,0,1-.26-.49A7.8,7.8,0,0,0,74.92,13.8Z"/><path id="path166-2" data-name="path166" class="cls-2" d="M72.87,13.34V14l0,.05v.05l0,.05,0,0,0,0a1.85,1.85,0,0,1-.53-.59C72.47,13.4,72.44,13.22,72.87,13.34Z"/><path id="path170-2" data-name="path170" class="cls-2" d="M71.62,13.65a.62.62,0,0,0-.47.26.89.89,0,0,0,.32,1.2,1.24,1.24,0,0,1,1.51,0,2.34,2.34,0,0,1,.62-.21v0h0v0l0,0,0,0h0v0l0,0,0,0,0,0,0,0,0,0h0l0,0h0l0,0h0l0,0,0,0,0,0,0,0,0,0,0,0,0,0,0,0h0l0,0,0,0c-.25-.11-.78-.27-.93-.75A1.5,1.5,0,0,0,71.62,13.65Zm.39.63a.2.2,0,0,1,.19.19v0h0v0h0v0h0v0h0v0h0v0h0l0,0h0a.19.19,0,0,1,0-.37Z"/><path id="path172-2" data-name="path172" class="cls-2" d="M73.69,15h.05v0h0v0h0v0l0,0v0l0,0,0,0,0,0,0,.05,0,0,0,0,0,0,0,0h0l0,0h0l0,0a1.46,1.46,0,0,0-1.4,1s-.38-.6-.1-1A1.32,1.32,0,0,1,73.69,15Z"/><path id="path174-2" data-name="path174" class="cls-2" d="M74.92,15.22h.48s0-.21,0-.31l.36.07a6.08,6.08,0,0,0,.64,1.11.83.83,0,0,1-.14.45,3.62,3.62,0,0,0-.57-.85A4.25,4.25,0,0,0,74.92,15.22Z"/><path id="path176-2" data-name="path176" class="cls-2" d="M74,15.05h.42l.07,0,.07,0,.07,0,.07,0,0,0h.07l0,0h.06l0,0h0a1.09,1.09,0,0,1,.55,1,2.27,2.27,0,0,0-.59-.57A3.34,3.34,0,0,1,74,15.05Z"/><path id="path178-2" data-name="path178" class="cls-2" d="M74,11.42h.31a3.6,3.6,0,0,1-.34.76h0a3.54,3.54,0,0,1-.34-.76c0-.17.2-.22.31-.22H74Z"/><path id="path180-2" data-name="path180" class="cls-2" d="M73.74,12.76v-.39l0-.07v-.52h0a.67.67,0,0,0-.46-.13.19.19,0,0,0-.17.25,8.91,8.91,0,0,0,.57.92Z"/><path id="path182-2" data-name="path182" class="cls-2" d="M74.15,12.76v-.55l0-.07v-.36h0a.66.66,0,0,1,.46-.13.2.2,0,0,1,.17.25,8.81,8.81,0,0,1-.57.92Z"/><polygon id="polygon184-2" data-name="polygon184" class="cls-2" points="74.45 10.59 74.09 10.59 74.09 10.19 73.8 10.19 73.8 10.59 73.44 10.59 73.44 10.84 73.8 10.84 73.8 11.3 74.09 11.3 74.09 10.84 74.45 10.84 74.45 10.59"/><path id="path186-2" data-name="path186" class="cls-2" d="M70.09,13.15V13h0a1.89,1.89,0,0,0,0-.5c-.26.1-.44.16-.79.74C69.32,13.16,69.89,12.81,70.09,13.15Z"/><path id="path188-2" data-name="path188" class="cls-2" d="M70.58,14.07h0v0h0v-.46l0-.07v-.07l0-.07,0-.07,0-.07v-.06a1.79,1.79,0,0,0-.12-1.29,1.85,1.85,0,0,1-.23-1,3.23,3.23,0,0,0-.53.23,2.05,2.05,0,0,0,.31,1,1.54,1.54,0,0,1,.07.83A1.65,1.65,0,0,0,70.58,14.07Z"/><path id="path190-2" data-name="path190" class="cls-2" d="M70.62,11h0a2.61,2.61,0,0,1,1-.61.63.63,0,0,1,.55.13.6.6,0,0,0-.4.18A2.64,2.64,0,0,1,71,11,.71.71,0,0,1,70.62,11Z"/><path id="path192-2" data-name="path192" class="cls-2" d="M72.19,10.37l0,0,0,0,0,0,0,0,0,0,0,0h0v0h0v0h0v0h0v0h0v0h0v0h0v0h0v0h0a2.62,2.62,0,0,1-.34.84,1.23,1.23,0,0,0-.26.7.7.7,0,0,0,.23.42s-.65-.16-.72-.55a1.14,1.14,0,0,1,.18-.81c.1-.19.4-.62.47-.8A.66.66,0,0,0,72.19,10.37Z"/><path id="path194-2" data-name="path194" class="cls-2" d="M76,14.88,76,15l0,.09,0,.08,0,.08,0,.08,0,.08,0,.08,0,.07,0,.07,0,.08,0,.07,0,.07,0,.07,0,.07,0,.07,0,.06a2.19,2.19,0,0,1,.3,1A1.89,1.89,0,0,0,77,16,1.79,1.79,0,0,0,76,14.88Z"/><path id="path196-2" data-name="path196" class="cls-2" d="M76.71,15h.66a1.67,1.67,0,0,1,.62,1,1.44,1.44,0,0,1-.67-.3A2.59,2.59,0,0,1,76.71,15Z"/><path id="path198-2" data-name="path198" class="cls-2" d="M74.41,15.84H74a2.09,2.09,0,0,1,.57.26,1.15,1.15,0,0,1,.37.69A4.76,4.76,0,0,0,75.38,18h0a2.66,2.66,0,0,1,.21-1.12,1.85,1.85,0,0,1-.44-.39A2.37,2.37,0,0,0,74.41,15.84Z"/><path id="path200-2" data-name="path200" class="cls-2" d="M76.38,16.88v.2l0,0v.07l0,.07,0,.07v.75c-.13.47-.43.67-.63,1.07a6,6,0,0,1-.12-1.27A1.17,1.17,0,0,1,76.38,16.88Z"/><path id="path202-2" data-name="path202" class="cls-2" d="M77.24,16.89h0v.09l0,0v0l0,0,0,0,0,0v.05l0,0,0,0,0,.05,0,.1,0,.1,0,.05,0,0,0,0v.29a.84.84,0,0,1-.15.75,6.14,6.14,0,0,0-.64.84,2.12,2.12,0,0,1-.31-.55,2.59,2.59,0,0,1,.08-.83C76.81,18.13,77,17.51,77.24,16.89Z"/><path id="path204-2" data-name="path204" class="cls-2" d="M77.46,19.64h-.06v0l0,0,0,0,0,0,0,0,0,0,0,0,0,0,0,0,0,0-.06.07-.05.07,0,0,0,0,0,0,0,0,0,0,0,0,0,0,0,0,0,0v.07h0a.9.9,0,0,0,0,.76,2.88,2.88,0,0,0,.85.78,2,2,0,0,1-.31-1c0-.29.25-.55.29-.72A1.35,1.35,0,0,0,77.46,19.64Z"/><path id="path206-2" data-name="path206" class="cls-2" d="M76.45,19.29h.07v0h0v0h0v0h0l0,0v.37a1.89,1.89,0,0,1-.16.84A10.73,10.73,0,0,1,75.95,22a4.59,4.59,0,0,1-.38-.66,6,6,0,0,0,.54-.89A5.69,5.69,0,0,0,76.45,19.29Z"/><path id="path208-2" data-name="path208" class="cls-2" d="M76.28,19.08h0v.43l0,.07v.07l0,.07,0,.08,0,.07,0,.08,0,.09,0,.08,0,.09,0,.09,0,.09,0,.09,0,.09-.05.09,0,.09-.06.1-.05.09-.06.08-.06.09-.07.09c-.49.61-.88.83-1.14.83a1.08,1.08,0,0,1-.93-.71,1.2,1.2,0,0,1,.16-1.17s.24.73.74.76S75.54,20.32,76.28,19.08Z"/><path id="path210-2" data-name="path210" class="cls-2" d="M75.69,18.57v.87a1.24,1.24,0,0,1-.49.73.72.72,0,0,1-1-.36A1.6,1.6,0,0,0,75.69,18.57Z"/><path id="path212-2" data-name="path212" class="cls-2" d="M77.4,23.51v.07l0,0v0l0,0,0,0,0,0,0,0,.05.07.05.07.06.07.05.07.05.07,0,0,0,0,0,0,0,0,0,0,0,0v.24a3.83,3.83,0,0,1-.43,1.48,2.17,2.17,0,0,1-.71-1A1.92,1.92,0,0,1,77.4,23.51Z"/><path id="path214-2" data-name="path214" class="cls-2" d="M76.72,24v-.33l0-.07,0-.07,0-.07,0-.07,0,0v0l0,0,0,0,0,0,0,0,0,0,0,0,0,0,0,0,0,0,0,0a1.33,1.33,0,0,0-.72-1.57A3.33,3.33,0,0,0,76,22.68C75.87,23.22,76.45,23.55,76.72,24Z"/><path id="path216-2" data-name="path216" class="cls-2" d="M75.39,21.58l0,0,0,0,0,0,0,0,0,0,0,0,0,0,0,0,0,0,0,0h0v0h-.17a3,3,0,0,0,0,.72,5.62,5.62,0,0,0,.45,1.2,3.15,3.15,0,0,0,.52-1c.05-.36,0-.65.06-.82C75.78,22.29,75.53,21.87,75.39,21.58Z"/><path id="path218-2" data-name="path218" class="cls-2" d="M74.16,23.67v-.1l0,0v0l0,0,0,0,0,0,0,0,0,0,0-.05,0,0,0-.05,0,0,0-.05,0-.1,0-.11,0-.11v-.05l0-.05v-.43a1.22,1.22,0,0,0,1,.07,3.76,3.76,0,0,1,0,.93A.9.9,0,0,1,74.16,23.67Z"/><path id="path220-2" data-name="path220" class="cls-2" d="M74.27,23.82h.11l0,0,0,0,0,0,0,0,0,0,0,0h.1s.35.64.41.83a.5.5,0,0,1-.37-.1A2.43,2.43,0,0,1,74.27,23.82Z"/><path id="path222-2" data-name="path222" class="cls-2" d="M75.9,23.44h0v.06l0,0,0,0,0,0,0,0,0,0,0,0,0,0,0,0-.06.08-.06.09,0,0,0,0,0,0,0,0,0,0,0,0,0,0,0,0v0l0,0h-.06a2.52,2.52,0,0,0,.25.69,2.94,2.94,0,0,0,.66.84s.34-.61.45-.87a1.1,1.1,0,0,0,.05-.73C76.48,24.16,76.08,23.77,75.9,23.44Z"/><path id="path224-2" data-name="path224" class="cls-2" d="M76.74,25.49v.1l0,0v0l0,0v0l0,0,0,0,0,.06,0,.07L77,26l0,.07,0,.07,0,.07v0l0,0v.26a1.18,1.18,0,0,1-.06.64c-.07.17-.3.52-.45.78a2.9,2.9,0,0,1-.63-.83,1.24,1.24,0,0,1,.07-.87C76.35,26,76.62,25.73,76.74,25.49Z"/><path id="path226-2" data-name="path226" class="cls-2" d="M75.28,25.42v.16l0,.05,0,.06,0,.05,0,.05,0,.05,0,.05,0,.05,0,.05v.25a1.09,1.09,0,0,1,0,.84c-.13.31-.28.49-.34.67a4.5,4.5,0,0,1-.49-.76,1.56,1.56,0,0,1,0-.83C75,25.94,75.18,25.63,75.28,25.42Z"/><path id="path228-2" data-name="path228" class="cls-2" d="M77.34,27.48h-.09l0,0,0,0,0,0,0,0,0,0,0,0,0,0,0,.05L77,28l0,.05,0,.05,0,.05,0,.06,0,.05,0,.05,0,.06,0,.05,0,.05,0,.06v.05l0,.05v.19c0,.58.4.95.46,1.31a4.43,4.43,0,0,0,.52-.71,1.65,1.65,0,0,0,.24-1A1.42,1.42,0,0,0,77.34,27.48Z"/><path id="path230-2" data-name="path230" class="cls-2" d="M76,27.39h0v.18l0,0v.07l0,0v.07l0,.07v.6a5.12,5.12,0,0,1-.57,1,5.92,5.92,0,0,1-.34-.85C75.39,28.36,75.44,27.93,76,27.39Z"/><path id="path232-2" data-name="path232" class="cls-2" d="M83.2,13.06h-.73c-.4,0-.73.06-.73.13s.33.13.73.13S83.2,13.13,83.2,13.06Z"/><path id="path234-2" data-name="path234" class="cls-2" d="M78.21,10.81v-.4l0-.09,0-.1,0-.1,0-.09,0-.1v0l0,0V9.47a.43.43,0,0,0-.87,0c0,.31.38,1,.43,1.34h0Z"/><path id="path236-2" data-name="path236" class="cls-2" d="M79.42,11.51l0-.09,0-.08,0-.07,0-.08,0-.07,0-.08,0-.07,0-.07,0-.07,0-.07,0-.07,0-.07,0-.07,0-.06,0-.06,0-.06V10.3l0-.05V9.72c0-.13-.16-.23-.31-.28a.45.45,0,0,0-.4,0,6.2,6.2,0,0,0-.45,1.88A1.65,1.65,0,0,1,79.42,11.51Z"/><path id="path238-2" data-name="path238" class="cls-2" d="M78.74,11.32h-.29a12.87,12.87,0,0,1,.32-1.61c.1-.32.22-.55.43-.61A7.26,7.26,0,0,0,79,10C78.86,10.44,78.79,10.89,78.74,11.32Z"/><path id="path240-2" data-name="path240" class="cls-2" d="M79.09,12.39h.07l0,0h0l0,0,0,0h0l0,0,0,0,0,0,0,0,0,0,0,0,0,0,0,0,0,0,0,0,0,0,0,0h0l0,0h.19A1,1,0,0,0,79.09,12.39Z"/><path id="path242-2" data-name="path242" class="cls-2" d="M78.74,12.18h.93l0,0h0l0,0,0,0h0l0,0,0,0a1.74,1.74,0,0,1,.61.7,2.36,2.36,0,0,1-1.23-.28A1.53,1.53,0,0,1,78.74,12.18Z"/><path id="path246-2" data-name="path246" class="cls-2" d="M79.44,13.2a.75.75,0,0,0,.41.43.64.64,0,0,0-.36.17.81.81,0,0,0,.41.34,1.75,1.75,0,0,1-1.14.52.87.87,0,0,0,.88.22,1.39,1.39,0,0,0,.9-.6,1.37,1.37,0,0,0,0,.45.72.72,0,0,0,.47-.28,1.57,1.57,0,0,0-.19.49,1,1,0,0,0,.47-.17,1.15,1.15,0,0,0-.07.36,3.55,3.55,0,0,0,1-.54v.24l0,0v.07s1.08-.1,1.16-1.68a4.12,4.12,0,0,1-1.44.22A10.57,10.57,0,0,1,79.44,13.2Zm2,.6a8,8,0,0,0,1.25,0v0h0v0l0,0v0l0,0v0l0,0v0h0v0l0,0v0l0,0,0,0v0h0l0,0v0h0l0,0v0h0l0,0,0,0c0-.46-1-.47-1-.47V13.8Z"/><path id="path248-2" data-name="path248" class="cls-2" d="M83.55,13.34V14l0,.05v.05l0,.05v.05l0,0,0,0a1.85,1.85,0,0,0,.53-.59C84,13.4,84,13.22,83.55,13.34Z"/><path id="path252-2" data-name="path252" class="cls-2" d="M84.45,13.65l0,0h0l0,0h0c-.16.48-.69.64-1,.75a2,2,0,0,0-.54.45,2.76,2.76,0,0,1,.64.21,1.24,1.24,0,0,1,1.51,0,.89.89,0,0,0,.32-1.2l0,0,0,0,0,0,0,0,0,0,0,0,0,0,0,0,0,0,0,0h0l0,0h0l0,0h-.41Zm-.06.63h.06v0h0v0h0l0,0v0h0v0h0v.07l0,0a.2.2,0,0,1-.19.19.18.18,0,0,1-.17-.19A.18.18,0,0,1,84.39,14.28Z"/><path id="path254-2" data-name="path254" class="cls-2" d="M82.72,15h-.05v0h0l0,0v0h0l0,0v0l0,0v0l0,0,0,0,0,.05,0,0,0,0,0,0,0,0h0l0,0h0l0,0a1.46,1.46,0,0,1,1.4,1s.38-.6.1-1A1.32,1.32,0,0,0,82.72,15Z"/><path id="path256-2" data-name="path256" class="cls-2" d="M81.5,15.22H81a2.36,2.36,0,0,1,0-.31l-.37.07A5.89,5.89,0,0,1,80,16.25a.83.83,0,0,0,.14.45,3.37,3.37,0,0,1,.57-.85A4.22,4.22,0,0,1,81.5,15.22Z"/><path id="path258-2" data-name="path258" class="cls-2" d="M82.45,15.05H82l-.07,0-.07,0-.07,0-.07,0,0,0h-.07l0,0h-.06l0,0h0a1.11,1.11,0,0,0-.56,1,2.36,2.36,0,0,1,.6-.57A3.33,3.33,0,0,0,82.45,15.05Z"/><path id="path260-2" data-name="path260" class="cls-2" d="M82.44,11.42h-.31a3.6,3.6,0,0,0,.34.76h0a3.54,3.54,0,0,0,.34-.76c0-.17-.2-.22-.31-.22h-.05Z"/><path id="path262-2" data-name="path262" class="cls-2" d="M82.67,12.76v-.55l0-.07v-.36h0a.65.65,0,0,1,.46-.13.2.2,0,0,1,.17.25,8.81,8.81,0,0,1-.57.92Z"/><path id="path264-2" data-name="path264" class="cls-2" d="M82.26,12.76V12.3l0-.08v-.43h0a.64.64,0,0,0-.46-.13.19.19,0,0,0-.16.25,6.78,6.78,0,0,0,.57.92Z"/><polygon id="polygon266-2" data-name="polygon266" class="cls-2" points="81.97 10.59 82.32 10.59 82.32 10.19 82.62 10.19 82.62 10.59 82.98 10.59 82.98 10.84 82.62 10.84 82.62 11.3 82.32 11.3 82.32 10.84 81.97 10.84 81.97 10.59"/><polygon id="polygon268-2" data-name="polygon268" class="cls-2" points="77.64 8.23 78.01 8.23 78.01 7.84 78.3 7.84 78.3 8.23 78.66 8.23 78.66 8.49 78.3 8.49 78.3 8.95 78.01 8.95 78.01 8.49 77.64 8.49 77.64 8.23"/><path id="path270-2" data-name="path270" class="cls-2" d="M86.33,13.15V13h0a1.66,1.66,0,0,1,0-.5c.26.1.44.16.79.74C87.09,13.16,86.52,12.81,86.33,13.15Z"/><path id="path272-2" data-name="path272" class="cls-2" d="M85.83,14.07h0v0h0v-.52l0-.07v-.07l0-.07,0-.07v-.06a1.83,1.83,0,0,1,.11-1.29,1.73,1.73,0,0,0,.23-1,3,3,0,0,1,.53.23,2.13,2.13,0,0,1-.31,1,1.41,1.41,0,0,0-.07.83A1.66,1.66,0,0,1,85.83,14.07Z"/><path id="path274-2" data-name="path274" class="cls-2" d="M85.8,11h0a2.66,2.66,0,0,0-1-.61.58.58,0,0,0-.53.13.61.61,0,0,1,.39.18,2.71,2.71,0,0,0,.75.49A.74.74,0,0,0,85.8,11Z"/><path id="path276-2" data-name="path276" class="cls-2" d="M84.22,10.37l0,0,0,0,0,0,0,0,0,0,0,0h0v0h0v0h0v0h0v0h0v0h0v0h0v0h0v0h0a2.6,2.6,0,0,0,.34.84,1.18,1.18,0,0,1,.27.7.74.74,0,0,1-.23.42s.65-.16.72-.55a1.13,1.13,0,0,0-.19-.81c-.1-.19-.4-.62-.47-.8A.74.74,0,0,1,84.22,10.37Z"/><path id="path278-2" data-name="path278" class="cls-2" d="M80.43,14.88l0,.08,0,.09,0,.08,0,.08,0,.08,0,.08,0,.08,0,.07,0,.07,0,.08,0,.07,0,.07,0,.07,0,.07,0,.07,0,.06a1.93,1.93,0,0,0-.3,1A1.86,1.86,0,0,1,79.42,16,1.8,1.8,0,0,1,80.43,14.88Z"/><path id="path280-2" data-name="path280" class="cls-2" d="M79.7,15H79a1.66,1.66,0,0,0-.61,1,1.47,1.47,0,0,0,.67-.3A2.59,2.59,0,0,0,79.7,15Z"/><path id="path282-2" data-name="path282" class="cls-2" d="M82,15.84h.43a2.21,2.21,0,0,0-.58.26,1.11,1.11,0,0,0-.36.69A4.4,4.4,0,0,1,81,18h0a2.92,2.92,0,0,0-.21-1.12,2,2,0,0,0,.44-.39A2.27,2.27,0,0,1,82,15.84Z"/><path id="path284-2" data-name="path284" class="cls-2" d="M80,16.88v.29l0,.07,0,.07v.75c.14.47.45.67.64,1.07a5.67,5.67,0,0,0,.11-1.27A1.15,1.15,0,0,0,80,16.88Z"/><path id="path286-2" data-name="path286" class="cls-2" d="M78.21,18.19h0v-.1l0,0v0l0,0,0,0,0,0,0,0,0,0,0,0,0,0,0,0,.06-.09.06-.09,0,0,0-.05,0,0,0,0,0,0,0,0,0,0v-.27c0-.36-.51-.61-.63-.67h0c-.12.05-.6.31-.63.67s.61,1,.62,1.29h0Z"/><path id="path288-2" data-name="path288" class="cls-2" d="M79.18,16.89h0V17l0,0v0l0,0v0l0,0,0,0,0,.05,0,0,0,0,0,.05,0,.1,0,.1,0,.05v0l0,0v.05l0,0v.19a.84.84,0,0,0,.14.75,5.17,5.17,0,0,1,.64.84,1.92,1.92,0,0,0,.31-.55,2.4,2.4,0,0,0-.08-.83C79.61,18.13,79.38,17.51,79.18,16.89Z"/><path id="path290-2" data-name="path290" class="cls-2" d="M78.21,20.22l0,0,0,0,0,0,0,0,0,0,0,0,0,0,0,0,0,0,0,0v0h0v0h0v0h0v0h0a.6.6,0,0,0-.07-.55,1.55,1.55,0,0,1-.37-.62h0a1.38,1.38,0,0,1-.37.62.57.57,0,0,0-.06.55,1.87,1.87,0,0,0,.44.59h0Z"/><path id="path292-2" data-name="path292" class="cls-2" d="M79,19.64H79v0l0,0,0,0,0,0,0,0,0,0,0,0,0,0,0,0,0,0,.06.07.05.07,0,0,0,0,0,0,0,0,0,0,0,0,0,0v0l0,0v.07h0a.87.87,0,0,1,0,.76,2.71,2.71,0,0,1-.85.78,2,2,0,0,0,.31-1,3.07,3.07,0,0,0-.28-.72A1.22,1.22,0,0,1,79,19.64Z"/><path id="path294-2" data-name="path294" class="cls-2" d="M80,19.29h-.07v0h0v0h0v0h0l0,0v.37a1.92,1.92,0,0,0,.17.84A9.56,9.56,0,0,0,80.47,22a4.92,4.92,0,0,0,.37-.66,6.46,6.46,0,0,1-.55-.89A6.13,6.13,0,0,1,80,19.29Z"/><path id="path296-2" data-name="path296" class="cls-2" d="M80.14,19.08h0v.49l0,.07,0,.07,0,.08,0,.07,0,.08,0,.09,0,.08,0,.09,0,.09,0,.09,0,.09,0,.09,0,.09.05.09.05.1.06.09.06.08.06.09.07.09c.49.61.88.83,1.14.83a1.08,1.08,0,0,0,.93-.71,1.22,1.22,0,0,0-.16-1.17s-.24.73-.75.76S80.87,20.32,80.14,19.08Z"/><path id="path298-2" data-name="path298" class="cls-2" d="M80.73,18.57v.88a1.21,1.21,0,0,0,.49.73.71.71,0,0,0,1-.36A1.59,1.59,0,0,1,80.73,18.57Z"/><path id="path300-2" data-name="path300" class="cls-2" d="M78.2,22.21h.34v0h0v0h0v0l0,0a1.26,1.26,0,0,0,.19-.84,2.76,2.76,0,0,0-.38-.67,1.14,1.14,0,0,1-.25.21h0A1.68,1.68,0,0,1,78,20.3a2.54,2.54,0,0,0-.37.67,1.22,1.22,0,0,0,.19.84A.84.84,0,0,0,78.2,22.21Z"/><path id="path302-2" data-name="path302" class="cls-2" d="M78.2,24.26v-.14l0,0,0,0,0,0,0,0,0,0,0,0,0,0,0,0,.06-.09.07-.09.06-.09,0,0,0,0,0,0,0,0,0,0,0,0,0,0V23h0c-.1-.52-.43-.41-.68-.62h0c-.25.21-.59.1-.68.62C77.46,23.31,78.13,23.94,78.2,24.26Z"/><path id="path304-2" data-name="path304" class="cls-2" d="M79,23.51v0l0,0v0l0,0,0,0,0,0,0,0,0,0-.05.07-.06.07-.05.07-.06.07-.05.07,0,0,0,0,0,0,0,0,0,0v0l0,0v.21a3.85,3.85,0,0,0,.42,1.48,2.16,2.16,0,0,0,.72-1A1.94,1.94,0,0,0,79,23.51Z"/><path id="path306-2" data-name="path306" class="cls-2" d="M79.7,24v-.33l0-.07,0-.07,0-.07,0-.07,0,0,0,0,0,0,0,0,0,0,0,0,0,0,0,0,0,0,0,0,0,0,0,0a1.34,1.34,0,0,1,.73-1.57,3.45,3.45,0,0,1,.56,1.13C80.55,23.22,80,23.55,79.7,24Z"/><path id="path308-2" data-name="path308" class="cls-2" d="M81,21.58l0,0,0,0,0,0,0,0,0,0,0,0,0,0,0,0,0,0,0,0h0l0,0h.16a3.23,3.23,0,0,1,0,.72,6,6,0,0,1-.45,1.2,3,3,0,0,1-.52-1,7.45,7.45,0,0,1-.07-.82S80.89,21.87,81,21.58Z"/><path id="path310-2" data-name="path310" class="cls-2" d="M82.25,23.67V23.6l0,0v0l0,0,0,0v0l0,0,0,0,0,0,0-.05,0,0,0-.05,0,0,0-.05,0-.1,0-.11,0-.11,0-.05v-.49a1.19,1.19,0,0,1-1,.07,3.67,3.67,0,0,0,0,.93A1,1,0,0,0,82.25,23.67Z"/><path id="path312-2" data-name="path312" class="cls-2" d="M82.14,23.82H82l0,0,0,0,0,0,0,0,0,0h-.11s-.34.64-.4.83a.48.48,0,0,0,.36-.1A2.23,2.23,0,0,0,82.14,23.82Z"/><path id="path314-2" data-name="path314" class="cls-2" d="M80.52,23.44h0v0l0,0v0l0,0,0,0,0,0,0,0,0,0,0,0,0,0,.06.08.06.09,0,0,0,0,0,0,0,0,0,0,0,0,0,0,0,0,0,0v0h.06a2.63,2.63,0,0,1-.25.69,3.1,3.1,0,0,1-.66.84s-.34-.61-.45-.87a1.05,1.05,0,0,1-.05-.73C79.93,24.16,80.33,23.77,80.52,23.44Z"/><path id="path316-2" data-name="path316" class="cls-2" d="M78.21,28.08V28h0v-.11l0,0v0l0,0,0-.05,0-.05,0-.05,0-.06,0-.06,0,0v0l0,0v-.16a.9.9,0,0,0,0-.66c-.1-.2-.46-.71-.51-.85h0c0,.14-.4.65-.51.85a.87.87,0,0,0,0,.66c.13.37.46.63.51.84Z"/><path id="path318-2" data-name="path318" class="cls-2" d="M79.67,25.49v.13l0,0v0l0,0,0,0,0,0,0,.06,0,.07,0,.06,0,.07,0,.07,0,.07,0,0v.07l0,0v.19a1.26,1.26,0,0,0,.06.64c.07.17.3.52.45.78a2.9,2.9,0,0,0,.63-.83,1.24,1.24,0,0,0-.07-.87C80.06,26,79.79,25.73,79.67,25.49Z"/><path id="path320-2" data-name="path320" class="cls-2" d="M81.13,25.42v.16l0,.05,0,.06,0,.05,0,.05,0,.05,0,.05,0,.05,0,.05v.25a1.09,1.09,0,0,0,0,.84c.13.31.28.49.34.67a4.12,4.12,0,0,0,.49-.76,1.42,1.42,0,0,0,0-.83A7.88,7.88,0,0,0,81.13,25.42Z"/><path id="path322-2" data-name="path322" class="cls-2" d="M78.2,32.22V32l0-.05,0,0,0-.05,0-.05,0-.06,0-.06,0-.06,0-.06,0-.07,0-.06,0-.07,0-.07,0-.07,0-.07,0-.07,0-.07,0-.07,0-.07v-.55a2.62,2.62,0,0,0-.59-1.37h0a2.74,2.74,0,0,0-.59,1.37A8.07,8.07,0,0,0,78.2,32.22Z"/><path id="path324-2" data-name="path324" class="cls-2" d="M79.08,27.48h.08l0,0,0,0,0,0,0,0,0,0,0,0,0,0,0,.05,0,.05,0,.05,0,.05,0,.05,0,.06,0,.05,0,.05,0,.06,0,.05,0,.05,0,.06v.29c0,.58-.4.95-.46,1.31a4.57,4.57,0,0,1-.52-.71,1.54,1.54,0,0,1-.24-1A1.36,1.36,0,0,1,79.08,27.48Z"/><path id="path326-2" data-name="path326" class="cls-2" d="M80.4,27.39h0v.15l0,0v.1l0,0v.07l0,.07v.6a4.75,4.75,0,0,0,.56,1,6.64,6.64,0,0,0,.35-.85C81,28.36,81,27.93,80.4,27.39Z"/><path id="path328-2" data-name="path328" class="cls-2" d="M78.7,33.61v-.46l0-.05V33l0-.05,0,0v0l0-.09,0-.08,0-.08,0-.07,0-.07v-.28a1.46,1.46,0,0,0-.25-1.2,11.42,11.42,0,0,1-.71,1.85l0,0s0,0,0,0A10.72,10.72,0,0,1,77.47,31a1.48,1.48,0,0,0-.25,1.2,5.79,5.79,0,0,1,.49,1.43c0,.68-.72.93-.72.93.26.09.55.13,1-.31A.92.92,0,0,0,78.2,34a1.33,1.33,0,0,0,.19.26c.47.44.76.4,1,.31C79.42,34.55,78.66,34.29,78.7,33.61Z"/><path id="path330-2" data-name="path330" class="cls-2" d="M76.3,29.12v.22l0,.06,0,.06,0,.07,0,.06,0,.07v.24h0v0h0v0h0c.06.27,0,.6-.51.94a1.49,1.49,0,0,1-.44-.52.52.52,0,0,1,.07-.6A5.37,5.37,0,0,0,76.3,29.12Z"/><path id="path332-2" data-name="path332" class="cls-2" d="M77.33,30.13h0v0h0v.49l0,.1,0,.1,0,.1v.09l0,.05v.13l0,0v0l0,0v0c-.31.53-.75.93-1.15.93s-.43-.22-.62-.31a.79.79,0,0,1,.5-.58A3.34,3.34,0,0,0,77.33,30.13Z"/><path id="path334-2" data-name="path334" class="cls-2" d="M76,31.1h0l0,0h-.2a4,4,0,0,0-.71.36,4.89,4.89,0,0,0-.79.77A1.46,1.46,0,0,0,75,32a1.18,1.18,0,0,1,.45-.66C75.57,31.28,75.8,31.21,76,31.1Z"/><path id="path336-2" data-name="path336" class="cls-2" d="M75.62,30.71h-.08v0h0v0h0v-.41s-.67.43-.87.58a5.92,5.92,0,0,0-.72.74s.51-.11.9-.24A4.32,4.32,0,0,0,75.62,30.71Z"/><path id="path338-2" data-name="path338" class="cls-2" d="M74.48,31.43H74l-.1,0-.1,0-.11,0-.1,0-.11,0-.1,0H73a1.87,1.87,0,0,0-.91.63s.49.13.76.22a4.69,4.69,0,0,1,.89-.46C74,32.07,74.16,31.75,74.48,31.43Z"/><path id="path340-2" data-name="path340" class="cls-2" d="M73.73,33.83h0v0h.07v0h0v0c-.05-.14-.35-.31-.53-.39s-1.1-.36-1.36-.44a1.38,1.38,0,0,0-.2.32c0,.07,0,.13.12.14s.77-.06.9,0,.09.22.09.34a.72.72,0,0,1,.4-.11C73.48,33.38,73.61,33.48,73.73,33.83Z"/><path id="path342-2" data-name="path342" class="cls-2" d="M73,32.71h.59l0,0h.06a.43.43,0,0,0,.2-.18c.07-.12.34-.53.6-.58a1.67,1.67,0,0,1-.34-.06,3.94,3.94,0,0,0-.45.15A3.3,3.3,0,0,0,73,32.71Z"/><path id="path344-2" data-name="path344" class="cls-2" d="M75.1,32.19h-.32s-.71.49-.79,1a.6.6,0,0,0,.25.68c.11.06.61.25.93-.4,0,0-.55.18-.7-.08a.71.71,0,0,1,.25-.76,1.14,1.14,0,0,1,.77-.21A2,2,0,0,0,75.1,32.19Z"/><path id="path346-2" data-name="path346" class="cls-2" d="M70.44,37.84l0-.13,0-.13,0-.14v-.07l0-.07,0-.07,0-.07,0-.07,0-.07,0-.07,0-.07,0-.07,0-.07c.32-.68,1.11-2.5,2.76-2.81.15,0-.18-.42-.33-.4a2,2,0,0,0-.57.29s0-.39,0-.46-.06-.1-.13-.1-.46,0-.58.15a11.45,11.45,0,0,0-1.37,2.47c-.36.87-.61,1.14-1,1s-.6-.57-1.26-.43a1.34,1.34,0,0,0-.68.43.41.41,0,0,0,.43.24,2.59,2.59,0,0,1,1.23.35A2.24,2.24,0,0,0,70.44,37.84Z"/><path id="path348-2" data-name="path348" class="cls-2" d="M77,32.22v.26l0,.05v0l0,.05,0,.05,0,.05,0,.05,0,0,0,.05,0,.05,0,.05,0,.05s-.49,2.31-2.31,2.48a1.22,1.22,0,0,1,.57-.84c.54-.37,1.34-.93,1.29-1.79,0,0-.15,0-.4.35s-.82,1.26-1.69,1.26a1.34,1.34,0,0,1,.52-.69,3.51,3.51,0,0,0,1.1-1A1.53,1.53,0,0,1,77,32.22Z"/><path id="path350-2" data-name="path350" class="cls-2" d="M76.14,40.63l1.11,1.55.84-1.49-.3-.54-.58,1.05c-.1-.15-.37-.54-.74-1.05Z"/><polygon id="polygon352-2" data-name="polygon352" class="cls-2" points="75.87 39.32 75.67 39.04 75.45 38.75 75.25 38.46 75.04 38.16 74.83 37.87 74.63 37.59 74.53 37.45 74.43 37.32 74.33 37.19 74.25 37.06 74.16 36.93 74.07 36.81 73.99 36.69 73.91 36.58 73.83 36.48 73.76 36.38 73.69 36.28 73.63 36.2 73.57 36.12 73.52 36.04 73.47 35.98 73.44 35.92 73.4 35.87 73.37 35.83 73.35 35.8 73.33 35.77 73.75 35.48 72.44 34.97 72.46 36.4 72.91 36.08 75.55 39.8 75.87 39.32"/><path id="path354-2" data-name="path354" class="cls-2" d="M66.81,30.89l0,0,0,0,0,0,0,0h.49l0,0,.05,0,0,0,.05,0,0,0,.05,0,.05,0,0,0,.05,0,.05,0,.05,0,.05,0,.05,0,0,0,.05,0,.05,0c.55.51.9,1,.58,1.39s-.88,0-1.43-.46S66.49,31.24,66.81,30.89Z"/><path id="path356-2" data-name="path356" class="cls-2" d="M67.71,37.16h-.05A1.46,1.46,0,0,1,67.19,36a1.51,1.51,0,1,1,3,0c0,.11,0,.29,0,.29s.32-.7.37-.81A1.93,1.93,0,0,0,67,35.18a3.35,3.35,0,0,1,.77-1.7,2,2,0,0,1,.87-.4,1.87,1.87,0,0,1-1.37-.65,2,2,0,0,1-.78-1.2,2.57,2.57,0,0,1-.11,1.14A4.94,4.94,0,0,0,65.85,35a4.46,4.46,0,0,0,1.27,2.23,1.13,1.13,0,0,1,.23.54s1.08,0,1.34,0c0,0,.25,0,.24-.19s-.14-.19-.26-.19A1.83,1.83,0,0,1,67.71,37.16Z"/><path id="path358-2" data-name="path358" class="cls-2" d="M73.67,37.53l-.13,0-.13,0-.13,0-.13,0-.13,0-.13,0-.13,0-.13,0-.13,0-.13,0-.13,0-.13,0-.25,0-.25,0a6.38,6.38,0,0,1-1.24.07.37.37,0,0,1,0,.22.35.35,0,0,1,.07.2,6.62,6.62,0,0,0,1.26-.08,11.09,11.09,0,0,0,2.23-.54Z"/><path id="path360-2" data-name="path360" class="cls-2" d="M74.81,37.48l.17-.1.17-.1.17-.11.17-.12.16-.13.17-.13.16-.14.17-.15.16-.16.16-.17.16-.17.16-.19.16-.2.16-.2.15-.22.08-.11.07-.12.14-.24a.91.91,0,0,1-.5,0l-.07.1a6.83,6.83,0,0,1-2.44,2.29Z"/><path id="path362-2" data-name="path362" class="cls-2" d="M68.74,37.87H68c-.27,0-.57.1-.61.24s.07.29.2.5.28.06.39,0a4.76,4.76,0,0,0,.84-.49C68.89,38.06,68.93,37.9,68.74,37.87Z"/><path id="path364-2" data-name="path364" class="cls-2" d="M69.37,38.28H69c-.17.07-.78.43-.83.6a.23.23,0,0,0,.14.3,1.19,1.19,0,0,0,.3.08A.5.5,0,0,0,69,39c.07-.1.36-.44.4-.52S69.44,38.32,69.37,38.28Z"/><path id="path366-2" data-name="path366" class="cls-2" d="M69.45,38.66h-.1v0h0l0,0,0,0h0v0h-.14a.08.08,0,0,0,.09.11,1.89,1.89,0,0,0,.75-.22c.24-.16.4-.48.24-.6S69.73,38.35,69.45,38.66Z"/><path id="path368-2" data-name="path368" class="cls-2" d="M69.58,37.74h-.46c-.09.13,0,.27.22.39s.71.22.8.09S70.11,37.88,69.58,37.74Z"/><path id="path370-2" data-name="path370" class="cls-2" d="M80.11,29.12v.22l0,.06,0,.06,0,.07,0,.06,0,.07v.24h0v0h0v0h0c-.05.27,0,.6.51.94a1.4,1.4,0,0,0,.44-.52.53.53,0,0,0-.07-.6A5.44,5.44,0,0,1,80.11,29.12Z"/><path id="path372-2" data-name="path372" class="cls-2" d="M79.08,30.13h0v0h0v.49l0,.1,0,.1,0,.1v.19l0,0v.09l0,0,0,0v0c.31.53.75.93,1.15.93s.44-.22.61-.31a.79.79,0,0,0-.5-.58A3.34,3.34,0,0,1,79.08,30.13Z"/><path id="path374-2" data-name="path374" class="cls-2" d="M80.39,31.1h0l0,0h.19a3.77,3.77,0,0,1,.71.36,5.29,5.29,0,0,1,.8.77,1.48,1.48,0,0,1-.78,0,1.18,1.18,0,0,0-.45-.66C80.85,31.28,80.61,31.21,80.39,31.1Z"/><path id="path376-2" data-name="path376" class="cls-2" d="M80.79,30.71h.08v0h0v0h0v-.41s.67.43.87.58a5.82,5.82,0,0,1,.71.74s-.51-.11-.9-.24A4.42,4.42,0,0,1,80.79,30.71Z"/><path id="path378-2" data-name="path378" class="cls-2" d="M81.93,31.43h.44l.1,0,.11,0,.1,0,.11,0,.1,0,.1,0h.43a1.94,1.94,0,0,1,.91.63s-.5.13-.76.22a4.61,4.61,0,0,0-.9-.46C82.39,32.07,82.25,31.75,81.93,31.43Z"/><path id="path380-2" data-name="path380" class="cls-2" d="M82.68,33.83h0v0h-.07v0h0v0a1.23,1.23,0,0,1,.53-.39c.3-.14,1.11-.36,1.37-.44a1.76,1.76,0,0,1,.2.32c0,.07,0,.13-.13.14s-.77-.06-.9,0-.1.22-.1.34a.72.72,0,0,0-.4-.11C82.93,33.38,82.81,33.48,82.68,33.83Z"/><path id="path382-2" data-name="path382" class="cls-2" d="M83.41,32.71h-.6l0,0h-.06a.43.43,0,0,1-.2-.18c-.07-.12-.34-.53-.59-.58a1.63,1.63,0,0,0,.34-.06,3.46,3.46,0,0,1,.45.15A3.53,3.53,0,0,1,83.41,32.71Z"/><path id="path384-2" data-name="path384" class="cls-2" d="M81.32,32.19h.31s.72.49.8,1a.6.6,0,0,1-.26.68c-.1.06-.6.25-.93-.4,0,0,.55.18.7-.08a.69.69,0,0,0-.25-.76,1.12,1.12,0,0,0-.76-.21A1.8,1.8,0,0,1,81.32,32.19Z"/><path id="path386-2" data-name="path386" class="cls-2" d="M86,37.84l0-.13,0-.13,0-.14,0-.07,0-.07v-.07l0-.07,0-.07,0-.07,0-.07,0-.07,0-.07,0-.07c-.31-.68-1.11-2.5-2.75-2.81-.16,0,.17-.42.32-.4a2.09,2.09,0,0,1,.58.29v-.46a.12.12,0,0,1,.13-.1c.07,0,.46,0,.59.15a11.46,11.46,0,0,1,1.36,2.47c.37.87.61,1.14,1,1s.6-.57,1.26-.43a1.28,1.28,0,0,1,.68.43c-.05.1-.12.24-.43.24a2.61,2.61,0,0,0-1.23.35A2.24,2.24,0,0,1,86,37.84Z"/><path id="path388-2" data-name="path388" class="cls-2" d="M79.42,32.22v.31l0,0,0,.05v.05l0,.05,0,.05,0,0,0,.05,0,.05-.06.1s.5,2.31,2.32,2.48a1.21,1.21,0,0,0-.58-.84c-.54-.37-1.34-.93-1.28-1.79,0,0,.13,0,.4.35s.82,1.26,1.7,1.26a1.34,1.34,0,0,0-.52-.69,3.43,3.43,0,0,1-1.1-1A1.58,1.58,0,0,0,79.42,32.22Z"/><path id="path390-2" data-name="path390" class="cls-2" d="M78.21,34.46v.1l0,0,0,0,0,0,0,.05,0,.05,0,.05,0,.05,0,.05,0,.06,0,.06,0,.06.08.11.08.12.08.11,0,.06,0,.05,0,.05,0,.05,0,.05,0,0,0,0,0,0,0,0,0,0,0,0,0,0c.29.28,1,1,1.42,1.37A4.79,4.79,0,0,1,79,36.54a2,2,0,0,1-.76.25h0a2,2,0,0,1-.77-.25,4.73,4.73,0,0,1-1.73.84c.39-.37,1.12-1.1,1.42-1.37a6.66,6.66,0,0,0,1.09-1.55h0Z"/><path id="path392-2" data-name="path392" class="cls-2" d="M78.21,37h.61a2.86,2.86,0,0,1-.61.88h0a2.76,2.76,0,0,1-.62-.88,1.55,1.55,0,0,0,.61.16h0Z"/><path id="path394-2" data-name="path394" class="cls-2" d="M79.16,42.18l4.35-6.1.44.32L84,35l-1.32.5.41.3c-.21.31-3.46,4.86-3.87,5.43l-2-3.57L77,38l-1.75,2.65-.44-.29v1.4l1.33-.52-.45-.31c.25-.36,1.19-1.79,1.51-2.27Z"/><path id="path396-2" data-name="path396" class="cls-2" d="M80,39.78l-.11-.16-.06-.08-.05-.08-.05-.07-.05-.08-.05-.07,0-.07-.05-.07,0-.07,0,0,0,0v0l0,0,0,0v0l0,0v-.05l0,0v0c-.1.2-.33.6-.58,1l-.31-.55.85-1.52.24.37.87,1.32Z"/><path id="path398-2" data-name="path398" class="cls-2" d="M80.86,40.17l.31.48.44-.29v1.4l-1.33-.52.44-.31-.2-.31Z"/><path id="path400-2" data-name="path400" class="cls-2" d="M89.61,30.89l0,0,0,0,0,0,0,0H89l-.05,0,0,0,0,0-.05,0,0,0-.05,0-.05,0-.05,0,0,0-.05,0-.05,0-.05,0-.05,0-.05,0-.05,0-.05,0c-.56.51-.9,1-.58,1.39s.87,0,1.43-.46S89.93,31.24,89.61,30.89Z"/><path id="path402-2" data-name="path402" class="cls-2" d="M88.7,37.16h.06A1.45,1.45,0,0,0,89.22,36a1.51,1.51,0,1,0-3,0c0,.11,0,.29,0,.29s-.31-.7-.37-.81a1.93,1.93,0,0,1,3.59-.33,3.35,3.35,0,0,0-.77-1.7,2,2,0,0,0-.87-.4,1.86,1.86,0,0,0,1.36-.65,2,2,0,0,0,.78-1.2,2.55,2.55,0,0,0,.12,1.14A5,5,0,0,1,90.57,35a4.52,4.52,0,0,1-1.27,2.23,1,1,0,0,0-.23.54s-1.08,0-1.33,0c0,0-.26,0-.25-.19s.15-.19.27-.19A1.81,1.81,0,0,0,88.7,37.16Z"/><path id="path404-2" data-name="path404" class="cls-2" d="M81.6,37.48l-.17-.1-.17-.1-.17-.11L80.93,37l-.17-.13-.17-.13-.16-.14-.16-.15-.16-.16-.16-.17L79.76,36l-.16-.19-.16-.2-.16-.2-.16-.22-.07-.11L79,35l-.14-.24a.91.91,0,0,0,.5,0,.75.75,0,0,1,.07.1,6.93,6.93,0,0,0,2.45,2.28Z"/><path id="path406-2" data-name="path406" class="cls-2" d="M82.74,37.53l.13,0,.13,0,.13,0,.13,0,.13,0,.13,0,.13,0,.13,0,.13,0,.13,0,.13,0,.13,0,.25,0,.25,0a6.45,6.45,0,0,0,1.24.07.54.54,0,0,0,0,.22.38.38,0,0,0-.07.2,6.74,6.74,0,0,1-1.27-.08,11.27,11.27,0,0,1-2.23-.54Z"/><path id="path408-2" data-name="path408" class="cls-2" d="M87.67,37.87h.78c.26,0,.56.1.6.24s-.07.29-.2.5-.28.06-.39,0a5.08,5.08,0,0,1-.84-.49C87.52,38.06,87.48,37.9,87.67,37.87Z"/><path id="path410-2" data-name="path410" class="cls-2" d="M87,38.28h.39c.17.07.78.43.83.6a.24.24,0,0,1-.13.3,1.34,1.34,0,0,1-.31.08.47.47,0,0,1-.37-.18,5.53,5.53,0,0,1-.4-.52C87,38.44,87,38.32,87,38.28Z"/><path id="path412-2" data-name="path412" class="cls-2" d="M87,38.66h.1v0h0l0,0,0,0,0,0h.13a.09.09,0,0,1-.1.11A1.83,1.83,0,0,1,86.5,39c-.25-.16-.4-.48-.24-.6S86.68,38.35,87,38.66Z"/><path id="path414-2" data-name="path414" class="cls-2" d="M86.83,37.74h.47c.08.13,0,.27-.22.39s-.72.22-.81.09S86.3,37.88,86.83,37.74Z"/></g></g></g></g></g></svg>