<svg xmlns="http://www.w3.org/2000/svg" viewBox="0 0 15.06 26"><defs><style>.cls-1{opacity:0.7;}.cls-2{fill:#f0f1f2;}</style></defs><title>ok-icon</title><g id="Layer_2" data-name="Layer 2"><g id="index_1280px" data-name="index@1280px"><g id="footer"><g id="social"><g id="ok.ru" class="cls-1"><path class="cls-2" d="M7.53,13.42A6.71,6.71,0,1,0,.82,6.71a6.72,6.72,0,0,0,6.71,6.71m0-9.49A2.78,2.78,0,1,1,4.75,6.71,2.78,2.78,0,0,1,7.53,3.93Z"/><path class="cls-2" d="M10.25,18.89a12.57,12.57,0,0,0,3.9-1.61A2,2,0,0,0,12,13.95a8.52,8.52,0,0,1-9,0A2,2,0,0,0,.92,17.28a12.59,12.59,0,0,0,3.9,1.61L1.06,22.64a2,2,0,0,0,2.78,2.78l3.68-3.69,3.69,3.69A2,2,0,1,0,14,22.64l-3.75-3.75"/></g></g></g></g></g></svg>