<svg xmlns="http://www.w3.org/2000/svg" viewBox="0 0 50.58 30"><defs><style>.cls-1{fill:#f0f1f2;}.cls-1,.cls-2{fill-rule:evenodd;}.cls-2{fill:#fa325a;}</style></defs><title>page-logo</title><g id="Layer_2" data-name="Layer 2"><g id="index_768px" data-name="index@768px"><g id="hero"><g id="header"><g id="logo"><path id="logo-2" data-name="logo" class="cls-1" d="M43.81,16.49a11.65,11.65,0,0,1,4.8-11.62A12.61,12.61,0,0,1,43.81,16.49Zm-8.5,13.25A11.69,11.69,0,0,1,45.93,23,12.64,12.64,0,0,1,35.31,29.74Zm5.75-7a11.65,11.65,0,0,1,9.52-8.21A12.61,12.61,0,0,1,41.06,22.73ZM6.77,16.49A11.65,11.65,0,0,0,2,4.87,12.61,12.61,0,0,0,6.77,16.49Zm8.5,13.25A11.69,11.69,0,0,0,4.65,23,12.65,12.65,0,0,0,15.27,29.74Zm-5.75-7A11.65,11.65,0,0,0,0,14.52,12.61,12.61,0,0,0,9.52,22.73ZM44.89,4.29h0a2.15,2.15,0,0,0-3,0L41,5.14l-.85-.85a2.15,2.15,0,0,0-3,0C35,6.46,39.69,9.88,41,11.21,42.34,9.88,47.06,6.46,44.89,4.29ZM17.39,1.54c-.38.2-.78.43-1.13.65a14.49,14.49,0,0,0-4.79,5.06,13,13,0,0,0-1,2,14.17,14.17,0,0,0-.66,2.22C6.67,25.8,24.66,35.76,35.89,26.26a18.35,18.35,0,0,0,3.18-3.38,16.86,16.86,0,0,0,2.16-4,24.89,24.89,0,0,0,1.07-4.59c0-1.19-.75-2.14-2.16-1.58s-.71,2.13-1.85,5.16a14.09,14.09,0,0,1-12.23,9.09,12.59,12.59,0,0,1-5.63-1,8.48,8.48,0,0,1-1.58-.81c-4.22-2.3-7.55-8.14-5.77-13.91a11.64,11.64,0,0,1,4.14-5.93A10.69,10.69,0,0,1,25.39,3.2a10.36,10.36,0,0,1,6.24,3.6,9,9,0,0,1-2.32,13.76,7.81,7.81,0,0,1-7.8-.05C15.43,16.57,18,9,23.17,8.45a4.67,4.67,0,0,1,5.31,4.62c-.25,3.6-4.73,4.2-5.2,1.52.51.35.67.71,1.55.62a2,2,0,0,0,1.54-1c1.07-2.49-1.92-4.89-4.5-3-3.22,2.32-1.55,7.26,2.37,8,5.27,1.05,9.29-5,6.38-10A8.17,8.17,0,0,0,18,7.55C11.89,13,15.37,22.32,22.51,24.28c5.62,1.54,10.33-1.48,12.72-5.28,4-6.29.87-14.9-6.25-17.95A13.79,13.79,0,0,0,17.39,1.54Z"/><path id="heart" class="cls-2" d="M44.89,4.29h0a2.15,2.15,0,0,0-3,0L41,5.14l-.85-.85a2.15,2.15,0,0,0-3,0C35,6.46,39.69,9.88,41,11.21,42.34,9.88,47.06,6.46,44.89,4.29Z"/></g></g></g></g></g></svg>