<?xml version="1.0" encoding="UTF-8" standalone="no"?>
<!-- Created with Inkscape (http://www.inkscape.org/) -->

<svg
   xmlns:dc="http://purl.org/dc/elements/1.1/"
   xmlns:cc="http://creativecommons.org/ns#"
   xmlns:rdf="http://www.w3.org/1999/02/22-rdf-syntax-ns#"
   xmlns:svg="http://www.w3.org/2000/svg"
   xmlns="http://www.w3.org/2000/svg"
   xmlns:xlink="http://www.w3.org/1999/xlink"
   version="1.1"
   width="300"
   height="120"
   id="svg2">
  <desc
     id="desc4">Created with graphing.ru and Raphael</desc>
  <metadata
     id="metadata12">
    <rdf:RDF>
      <cc:Work
         rdf:about="">
        <dc:format>image/svg+xml</dc:format>
        <dc:type
           rdf:resource="http://purl.org/dc/dcmitype/StillImage" />
        <dc:title></dc:title>
      </cc:Work>
    </rdf:RDF>
  </metadata>
  <defs
     id="defs6">
    <linearGradient
       id="linearGradient3796">
      <stop
         id="stop3798"
         style="stop-color:#012ba8;stop-opacity:1"
         offset="0" />
      <stop
         id="stop3800"
         style="stop-color:#0068e3;stop-opacity:1"
         offset="1" />
    </linearGradient>
    <linearGradient
       id="linearGradient3775">
      <stop
         id="stop3777"
         style="stop-color:#003db9;stop-opacity:1"
         offset="0" />
      <stop
         id="stop3779"
         style="stop-color:#ffffff;stop-opacity:1"
         offset="1" />
    </linearGradient>
    <linearGradient
       id="linearGradient3763">
      <stop
         id="stop3765"
         style="stop-color:#c40000;stop-opacity:1"
         offset="0" />
      <stop
         id="stop3767"
         style="stop-color:#ffffff;stop-opacity:1"
         offset="1" />
    </linearGradient>
    <linearGradient
       x1="609.99133"
       y1="8.8892984"
       x2="609.99133"
       y2="86.089096"
       id="linearGradient3769"
       xlink:href="#linearGradient3763"
       gradientUnits="userSpaceOnUse"
       gradientTransform="translate(-60,0)" />
    <linearGradient
       x1="609.99133"
       y1="8.8892984"
       x2="609.99133"
       y2="86.089096"
       id="linearGradient3773"
       xlink:href="#linearGradient3775"
       gradientUnits="userSpaceOnUse"
       gradientTransform="matrix(3.2214765,0,0,1,-1775.0336,0)" />
    <linearGradient
       x1="609.99133"
       y1="8.8892984"
       x2="609.99133"
       y2="86.089096"
       id="linearGradient3891"
       xlink:href="#linearGradient3763"
       gradientUnits="userSpaceOnUse"
       gradientTransform="translate(-60,0)" />
    <linearGradient
       x1="609.99133"
       y1="8.8892984"
       x2="609.99133"
       y2="86.089096"
       id="linearGradient3893"
       xlink:href="#linearGradient3775"
       gradientUnits="userSpaceOnUse"
       gradientTransform="matrix(3.2214765,0,0,1,-1775.0336,0)" />
    <linearGradient
       x1="609.99133"
       y1="8.8892984"
       x2="609.99133"
       y2="86.089096"
       id="linearGradient3951"
       xlink:href="#linearGradient3763"
       gradientUnits="userSpaceOnUse"
       gradientTransform="translate(-60,0)" />
    <linearGradient
       x1="609.99133"
       y1="8.8892984"
       x2="609.99133"
       y2="86.089096"
       id="linearGradient3953"
       xlink:href="#linearGradient3775"
       gradientUnits="userSpaceOnUse"
       gradientTransform="matrix(3.2214765,0,0,1,-1775.0336,0)" />
    <linearGradient
       x1="609.99133"
       y1="8.8892984"
       x2="609.99133"
       y2="86.089096"
       id="linearGradient3956"
       xlink:href="#linearGradient3775"
       gradientUnits="userSpaceOnUse"
       gradientTransform="matrix(4.0268456,0,0,1.25,-2289.5574,164.61729)" />
    <linearGradient
       x1="609.99133"
       y1="8.8892984"
       x2="609.99133"
       y2="86.089096"
       id="linearGradient3959"
       xlink:href="#linearGradient3763"
       gradientUnits="userSpaceOnUse"
       gradientTransform="matrix(1.25,0,0,1.25,-25.76543,164.61729)" />
    <linearGradient
       x1="609.99133"
       y1="8.8892984"
       x2="609.99133"
       y2="86.089096"
       id="linearGradient3773-5"
       xlink:href="#linearGradient3775-9"
       gradientUnits="userSpaceOnUse"
       gradientTransform="matrix(3.2214765,0,0,1,-1775.0336,0)" />
    <linearGradient
       x1="609.99133"
       y1="8.8892984"
       x2="609.99133"
       y2="86.089096"
       id="linearGradient3769-5"
       xlink:href="#linearGradient3763-8"
       gradientUnits="userSpaceOnUse"
       gradientTransform="translate(-60,0)" />
    <linearGradient
       id="linearGradient3763-8">
      <stop
         id="stop3765-2"
         style="stop-color:#c40000;stop-opacity:1"
         offset="0" />
      <stop
         id="stop3767-4"
         style="stop-color:#ffffff;stop-opacity:1"
         offset="1" />
    </linearGradient>
    <linearGradient
       id="linearGradient3775-9">
      <stop
         id="stop3777-4"
         style="stop-color:#003db9;stop-opacity:1"
         offset="0" />
      <stop
         id="stop3779-8"
         style="stop-color:#ffffff;stop-opacity:1"
         offset="1" />
    </linearGradient>
    <linearGradient
       x1="599.7522"
       y1="181.46066"
       x2="599.7522"
       y2="1.018748"
       id="linearGradient3802"
       xlink:href="#linearGradient3796"
       gradientUnits="userSpaceOnUse" />
  </defs>
  <path
     d="M 59.745476,5.537578 C 29.660285,5.537578 5,30.197876 5,60.28305 5,90.36825 29.660289,115 59.745476,115 76.341565,115 91.34159,107.54692 101.368,95.80057 A 11.924784,11.924784 0 1 0 83.25265,80.3098 c -5.676326,6.650043 -14.020567,10.84069 -23.507174,10.84069 -17.197213,0 -30.895963,-13.67022 -30.895963,-30.86744 0,-17.197209 13.698752,-30.895952 30.895963,-30.895952 9.106151,0 17.13383,3.875965 22.793972,10.070428 A 11.924784,11.924784 0 1 0 100.14129,23.367661 C 90.14663,12.42947 75.675979,5.537578 59.745476,5.537578 z M 120.17111,5.335479 a 11.129801,11.129801 0 1 0 0,22.257379 l 20.76694,0 0,74.348572 a 12.322279,12.322279 0 1 0 24.64209,0 l 0,-74.348572 20.76693,0 a 11.129801,11.129801 0 1 0 0,-22.257379 l -66.17596,0 z m 130.11623,-0.14904 c -30.08519,0 -54.72433,24.639139 -54.72433,54.724334 0,30.085185 24.63914,54.724337 54.72433,54.724337 16.5961,0 31.6068,-7.45562 41.63321,-19.20197 A 11.924784,11.924784 0 1 0 273.78676,79.957305 c -5.67633,6.650043 -14.01281,10.830605 -23.49942,10.830605 -17.19721,0 -30.87715,-13.679927 -30.87715,-30.877137 0,-17.19722 13.67994,-30.877143 30.87715,-30.877143 9.10614,0 17.14373,3.866063 22.80387,10.060526 A 11.929965,11.929965 0 1 0 290.70336,22.99731 C 280.70868,12.05913 266.21784,5.186439 250.28734,5.186439 z"
     id="path3042"
     style="font-size:medium;font-style:normal;font-variant:normal;font-weight:normal;font-stretch:normal;text-indent:0;text-align:start;text-decoration:none;line-height:normal;letter-spacing:normal;word-spacing:normal;text-transform:none;direction:ltr;block-progression:tb;writing-mode:lr-tb;text-anchor:start;baseline-shift:baseline;color:#000000;fill:#ffcb08;fill-opacity:1;stroke:none;stroke-width:26.12244797;marker:none;visibility:visible;display:inline;overflow:visible;enable-background:accumulate;font-family:Sans;-inkscape-font-specification:Sans" />
</svg>
