<svg xmlns="http://www.w3.org/2000/svg" viewBox="0 0 25.84 21"><defs><style>.cls-1{fill:#f0f1f2;opacity:0.7;}</style></defs><title>tw-icon</title><g id="Layer_2" data-name="Layer 2"><g id="index_1280px" data-name="index@1280px"><g id="footer"><g id="social"><path id="twitter" class="cls-1" d="M25.84,2.49a10.6,10.6,0,0,1-3,.83A5.32,5.32,0,0,0,25.13.39a10.61,10.61,0,0,1-3.37,1.29,5.31,5.31,0,0,0-9,4.84A15.05,15.05,0,0,1,1.8,1,5.31,5.31,0,0,0,3.44,8,5.28,5.28,0,0,1,1,7.39v.07a5.3,5.3,0,0,0,4.25,5.2,5.31,5.31,0,0,1-2.39.09,5.31,5.31,0,0,0,5,3.68,10.64,10.64,0,0,1-6.58,2.27A10.79,10.79,0,0,1,0,18.62,15,15,0,0,0,8.13,21,15,15,0,0,0,23.21,5.92q0-.34,0-.69A10.77,10.77,0,0,0,25.84,2.49Z"/></g></g></g></g></svg>