<svg xmlns="http://www.w3.org/2000/svg" viewBox="0 0 31.55 18"><defs><style>.cls-1{fill:#f0f1f2;fill-rule:evenodd;opacity:0.7;}</style></defs><title>vk-icon</title><g id="Layer_2" data-name="Layer 2"><g id="index_1280px" data-name="index@1280px"><g id="footer"><g id="social"><path id="vk.com" class="cls-1" d="M15.44,17.92h1.89a1.59,1.59,0,0,0,.86-.38,1.38,1.38,0,0,0,.26-.83s0-2.53,1.14-2.9,2.64,2.45,4.22,3.53a3,3,0,0,0,2.1.64l4.21-.06s2.2-.14,1.16-1.87a14.08,14.08,0,0,0-3.13-3.62C25.5,10,25.85,10.38,29,6.13,31,3.55,31.74,2,31.5,1.3S29.85.82,29.85.82L25.1.85a1.08,1.08,0,0,0-.61.11,1.32,1.32,0,0,0-.42.51,27.52,27.52,0,0,1-1.75,3.7c-2.11,3.59-3,3.78-3.3,3.55-.8-.52-.6-2.09-.6-3.2,0-3.48.53-4.93-1-5.3A8.11,8.11,0,0,0,15.17,0a10.23,10.23,0,0,0-3.94.4c-.54.26-1,.85-.7.89a2.13,2.13,0,0,1,1.4.7,4.58,4.58,0,0,1,.47,2.15s.28,4.09-.65,4.6c-.64.35-1.52-.36-3.4-3.62A30.27,30.27,0,0,1,6.66,1.62a1.41,1.41,0,0,0-.39-.53A2,2,0,0,0,5.54.79L1,.82S.35.84.1,1.14s0,.8,0,.8S3.61,10.2,7.61,14.36a10.83,10.83,0,0,0,7.83,3.57Z"/></g></g></g></g></svg>